<?xml version="1.0" encoding="UTF-8"?>
<!DOCTYPE svg PUBLIC "-//W3C//DTD SVG 1.1//EN" "http://www.w3.org/Graphics/SVG/1.1/DTD/svg11.dtd">
<svg xmlns="http://www.w3.org/2000/svg" version="1.1" width="1887px" height="907px" style="shape-rendering:geometricPrecision; text-rendering:geometricPrecision; image-rendering:optimizeQuality; fill-rule:evenodd; clip-rule:evenodd" xmlns:xlink="http://www.w3.org/1999/xlink">
<g><path style="opacity:1" fill="#343545" d="M -0.5,-0.5 C 628.5,-0.5 1257.5,-0.5 1886.5,-0.5C 1886.5,-0.166667 1886.5,0.166667 1886.5,0.5C 1757.5,0.5 1628.5,0.5 1499.5,0.5C 1299.5,0.5 1099.5,0.5 899.5,0.5C 885.833,0.5 872.167,0.5 858.5,0.5C 852.5,0.5 846.5,0.5 840.5,0.5C 795.5,0.5 750.5,0.5 705.5,0.5C 696.5,0.5 687.5,0.5 678.5,0.5C 668.5,0.5 658.5,0.5 648.5,0.5C 630.5,0.5 612.5,0.5 594.5,0.5C 544.833,0.5 495.167,0.5 445.5,0.5C 396.833,0.5 348.167,0.5 299.5,0.5C 286.5,0.5 273.5,0.5 260.5,0.5C 250.167,0.5 239.833,0.5 229.5,0.5C 217.167,0.5 204.833,0.5 192.5,0.5C 181.5,0.5 170.5,0.5 159.5,0.5C 151.167,0.5 142.833,0.5 134.5,0.5C 126.833,0.5 119.167,0.5 111.5,0.5C 101.494,0.333518 91.4944,0.500185 81.5,1C 90.5521,9.38958 99.5521,17.7229 108.5,26C 112.833,26.3333 117.167,26.6667 121.5,27C 122.5,28 123.5,29 124.5,30C 121.99,30.3763 119.657,31.2096 117.5,32.5C 118.624,33.914 119.624,35.414 120.5,37C 123.783,38.5605 126.617,40.7272 129,43.5C 132.788,50.9125 136.955,58.0791 141.5,65C 142.416,65.3742 143.25,65.8742 144,66.5C 144.242,60.1156 144.908,53.7822 146,47.5C 147,48.5 148,49.5 149,50.5C 149.169,58.1883 149.669,65.8549 150.5,73.5C 152.167,75.8333 154.167,77.8333 156.5,79.5C 154.833,81.8333 152.833,83.8333 150.5,85.5C 149.668,93.4793 149.168,101.479 149,109.5C 147.989,108.663 146.822,108.33 145.5,108.5C 144.687,100.862 144.354,93.1956 144.5,85.5C 134.264,86.2101 124.264,85.0435 114.5,82C 102.5,76 90.5,70 78.5,64C 74.5796,62.6866 70.5796,61.6866 66.5,61C 62.5,58.3333 58.5,55.6667 54.5,53C 49.7574,51.5304 45.0907,49.8637 40.5,48C 32.5,42.6667 24.5,37.3333 16.5,32C 10.8112,31.6266 5.14451,31.1266 -0.5,30.5C -0.5,20.1667 -0.5,9.83333 -0.5,-0.5 Z"/></g>
<g><path style="opacity:1" fill="#282a3d" d="M 111.5,0.5 C 117.69,7.26782 124.69,13.1012 132.5,18C 135.167,20.6667 137.833,23.3333 140.5,26C 141.793,26.49 143.127,26.6567 144.5,26.5C 144.351,25.448 144.517,24.448 145,23.5C 147.537,26.372 150.37,28.872 153.5,31C 152.207,31.49 150.873,31.6567 149.5,31.5C 149.343,32.8734 149.51,34.2068 150,35.5C 163.916,50.4178 178.249,65.0845 193,79.5C 201.514,90.5154 208.514,102.515 214,115.5C 214.667,119.833 214.667,124.167 214,128.5C 213.167,129.333 212.333,130.167 211.5,131C 203.193,131.031 195.026,131.864 187,133.5C 185.933,132.809 184.766,132.309 183.5,132C 184.5,131.667 185.5,131.333 186.5,131C 173.818,129.885 161.651,126.718 150,121.5C 149.824,124.882 149.324,128.215 148.5,131.5C 146.833,131.167 145.833,130.167 145.5,128.5C 144.969,125.265 144.302,122.098 143.5,119C 105.772,100.636 68.1054,81.9697 30.5,63C 19.7398,57.3758 9.40643,51.2092 -0.5,44.5C -0.5,39.8333 -0.5,35.1667 -0.5,30.5C 5.14451,31.1266 10.8112,31.6266 16.5,32C 24.5,37.3333 32.5,42.6667 40.5,48C 45.0907,49.8637 49.7574,51.5304 54.5,53C 58.5,55.6667 62.5,58.3333 66.5,61C 70.5796,61.6866 74.5796,62.6866 78.5,64C 90.5,70 102.5,76 114.5,82C 124.264,85.0435 134.264,86.2101 144.5,85.5C 144.354,93.1956 144.687,100.862 145.5,108.5C 146.822,108.33 147.989,108.663 149,109.5C 149.168,101.479 149.668,93.4793 150.5,85.5C 152.833,83.8333 154.833,81.8333 156.5,79.5C 154.167,77.8333 152.167,75.8333 150.5,73.5C 149.669,65.8549 149.169,58.1883 149,50.5C 148,49.5 147,48.5 146,47.5C 144.908,53.7822 144.242,60.1156 144,66.5C 143.25,65.8742 142.416,65.3742 141.5,65C 136.955,58.0791 132.788,50.9125 129,43.5C 126.617,40.7272 123.783,38.5605 120.5,37C 119.624,35.414 118.624,33.914 117.5,32.5C 119.657,31.2096 121.99,30.3763 124.5,30C 123.5,29 122.5,28 121.5,27C 117.167,26.6667 112.833,26.3333 108.5,26C 99.5521,17.7229 90.5521,9.38958 81.5,1C 91.4944,0.500185 101.494,0.333518 111.5,0.5 Z"/></g>
<g><path style="opacity:1" fill="#222537" d="M 111.5,0.5 C 119.167,0.5 126.833,0.5 134.5,0.5C 137.476,3.30209 140.642,5.96876 144,8.5C 143.647,2.52837 145.314,1.8617 149,6.5C 149.333,9.5 149.667,12.5 150,15.5C 154.167,19 158.333,22.5 162.5,26C 167.167,26.3333 171.833,26.6667 176.5,27C 177.5,28 178.5,29 179.5,30C 176.576,30.9876 173.576,31.6543 170.5,32C 187.417,48.582 203.917,65.4154 220,82.5C 224.15,90.6581 229.817,97.6581 237,103.5C 241.264,115.457 245.43,127.457 249.5,139.5C 247.427,147.408 242.427,152.574 234.5,155C 227.281,157.037 219.948,158.537 212.5,159.5C 191.134,155.327 170.467,148.994 150.5,140.5C 149.686,142.766 149.186,145.1 149,147.5C 147.915,146.707 146.748,146.04 145.5,145.5C 144.792,142.634 144.125,139.8 143.5,137C 117.5,124.333 91.5,111.667 65.5,99C 43.6351,86.235 21.6351,73.735 -0.5,61.5C -0.5,55.8333 -0.5,50.1667 -0.5,44.5C 9.40643,51.2092 19.7398,57.3758 30.5,63C 68.1054,81.9697 105.772,100.636 143.5,119C 144.302,122.098 144.969,125.265 145.5,128.5C 145.833,130.167 146.833,131.167 148.5,131.5C 149.324,128.215 149.824,124.882 150,121.5C 161.651,126.718 173.818,129.885 186.5,131C 185.5,131.333 184.5,131.667 183.5,132C 184.766,132.309 185.933,132.809 187,133.5C 195.026,131.864 203.193,131.031 211.5,131C 212.333,130.167 213.167,129.333 214,128.5C 214.667,124.167 214.667,119.833 214,115.5C 208.514,102.515 201.514,90.5154 193,79.5C 178.249,65.0845 163.916,50.4178 150,35.5C 149.51,34.2068 149.343,32.8734 149.5,31.5C 150.873,31.6567 152.207,31.49 153.5,31C 150.37,28.872 147.537,26.372 145,23.5C 144.517,24.448 144.351,25.448 144.5,26.5C 143.127,26.6567 141.793,26.49 140.5,26C 137.833,23.3333 135.167,20.6667 132.5,18C 124.69,13.1012 117.69,7.26782 111.5,0.5 Z"/></g>
<g><path style="opacity:1" fill="#03061b" d="M 260.5,0.5 C 273.5,0.5 286.5,0.5 299.5,0.5C 299.5,9.16667 299.5,17.8333 299.5,26.5C 348.167,26.5 396.833,26.5 445.5,26.5C 445.5,17.8333 445.5,9.16667 445.5,0.5C 495.167,0.5 544.833,0.5 594.5,0.5C 594.765,4.85331 595.265,9.18664 596,13.5C 597.011,14.3366 598.178,14.67 599.5,14.5C 599.5,18.5 599.5,22.5 599.5,26.5C 604.511,26.3341 609.511,26.5007 614.5,27C 615.71,28.0391 616.71,29.2058 617.5,30.5C 611.5,30.5 605.5,30.5 599.5,30.5C 599.5,79.1667 599.5,127.833 599.5,176.5C 601.167,176.5 602.833,176.5 604.5,176.5C 602.235,178.642 599.568,180.309 596.5,181.5C 595.833,229.998 595.167,278.332 594.5,326.5C 594.5,278.167 594.5,229.833 594.5,181.5C 546.167,181.5 497.833,181.5 449.5,181.5C 449.5,229.833 449.5,278.167 449.5,326.5C 456.833,326.5 464.167,326.5 471.5,326.5C 471.172,315.986 471.506,305.653 472.5,295.5C 472.5,316.5 472.5,337.5 472.5,358.5C 471.507,349.682 471.173,340.682 471.5,331.5C 464.167,331.5 456.833,331.5 449.5,331.5C 449.5,379.833 449.5,428.167 449.5,476.5C 497.833,476.5 546.167,476.5 594.5,476.5C 594.5,428.167 594.5,379.833 594.5,331.5C 582.167,331.5 569.833,331.5 557.5,331.5C 569.989,330.505 582.656,330.171 595.5,330.5C 595.167,379.505 595.5,428.505 596.5,477.5C 598.167,478.333 599.833,479.167 601.5,480C 649.499,480.5 697.499,480.667 745.5,480.5C 745.5,497.5 745.5,514.5 745.5,531.5C 746.959,531.433 748.292,531.766 749.5,532.5C 749.5,563.833 749.5,595.167 749.5,626.5C 797.833,626.5 846.167,626.5 894.5,626.5C 894.5,617.833 894.5,609.167 894.5,600.5C 909.5,600.5 924.5,600.5 939.5,600.5C 976.167,600.5 1012.83,600.5 1049.5,600.5C 1049.5,609.167 1049.5,617.833 1049.5,626.5C 1097.83,626.5 1146.17,626.5 1194.5,626.5C 1194.5,578.167 1194.5,529.833 1194.5,481.5C 1146.17,481.5 1097.83,481.5 1049.5,481.5C 1098,480.501 1146.66,480.168 1195.5,480.5C 1195.5,493.167 1195.5,505.833 1195.5,518.5C 1196.96,518.567 1198.29,518.234 1199.5,517.5C 1199.5,553.833 1199.5,590.167 1199.5,626.5C 1248.17,626.5 1296.83,626.5 1345.5,626.5C 1344.67,578.171 1344.34,529.838 1344.5,481.5C 1296.17,481.5 1247.83,481.5 1199.5,481.5C 1230.33,480.668 1261.33,480.168 1292.5,480C 1294.73,479.059 1296.73,477.892 1298.5,476.5C 1313.83,476.5 1329.17,476.5 1344.5,476.5C 1344.5,437.5 1344.5,398.5 1344.5,359.5C 1346.17,359.5 1347.83,359.5 1349.5,359.5C 1349.5,398.5 1349.5,437.5 1349.5,476.5C 1397.83,476.5 1446.17,476.5 1494.5,476.5C 1494.5,428.167 1494.5,379.833 1494.5,331.5C 1469.83,331.5 1445.17,331.5 1420.5,331.5C 1420.4,329.447 1421.07,327.78 1422.5,326.5C 1446.5,326.5 1470.5,326.5 1494.5,326.5C 1494.5,277.833 1494.5,229.167 1494.5,180.5C 1446.17,181.311 1397.84,181.644 1349.5,181.5C 1349.5,225.167 1349.5,268.833 1349.5,312.5C 1347.83,312.5 1346.17,312.5 1344.5,312.5C 1344.5,268.833 1344.5,225.167 1344.5,181.5C 1296.17,181.5 1247.83,181.5 1199.5,181.5C 1231,180.668 1262.66,180.168 1294.5,180C 1292.42,179.303 1290.75,178.136 1289.5,176.5C 1307.83,176.5 1326.17,176.5 1344.5,176.5C 1344.51,128.161 1344.68,79.8274 1345,31.5C 1296.57,30.5028 1248.07,30.1695 1199.5,30.5C 1199.5,67.5 1199.5,104.5 1199.5,141.5C 1198.29,140.766 1196.96,140.433 1195.5,140.5C 1195.83,152.678 1195.5,164.678 1194.5,176.5C 1194.5,127.833 1194.5,79.1667 1194.5,30.5C 1146.17,30.5 1097.83,30.5 1049.5,30.5C 1049.5,57.5 1049.5,84.5 1049.5,111.5C 1048.18,111.67 1047.01,111.337 1046,110.5C 1045.83,132.67 1045.33,154.67 1044.5,176.5C 1044.5,127.833 1044.5,79.1667 1044.5,30.5C 1007.5,30.5 970.5,30.5 933.5,30.5C 933.5,29.5 933.5,28.5 933.5,27.5C 929.892,26.3275 920.225,25.9941 904.5,26.5C 904.665,23.1501 904.498,19.8168 904,16.5C 901.983,11.2873 900.483,5.95397 899.5,0.5C 1099.5,0.5 1299.5,0.5 1499.5,0.5C 1499.5,9.16667 1499.5,17.8333 1499.5,26.5C 1529.17,26.3334 1558.84,26.5 1588.5,27C 1590.5,28 1592.5,29 1594.5,30C 1562.84,30.5 1531.17,30.6666 1499.5,30.5C 1499.5,79.1667 1499.5,127.833 1499.5,176.5C 1548.17,176.5 1596.83,176.5 1645.5,176.5C 1645.33,136.832 1645.5,97.1653 1646,57.5C 1646.69,58.3567 1647.52,59.0233 1648.5,59.5C 1649.5,98.4943 1649.83,137.494 1649.5,176.5C 1696.17,176.333 1742.83,176.5 1789.5,177C 1790.36,177.689 1791.02,178.522 1791.5,179.5C 1744.17,180.5 1696.84,180.833 1649.5,180.5C 1649.5,229.167 1649.5,277.833 1649.5,326.5C 1698.17,326.5 1746.83,326.5 1795.5,326.5C 1795.33,279.499 1795.5,232.499 1796,185.5C 1797,186.833 1798,188.167 1799,189.5C 1799.5,235.165 1799.67,280.832 1799.5,326.5C 1815.5,326.5 1831.5,326.5 1847.5,326.5C 1847.5,327.833 1847.5,329.167 1847.5,330.5C 1831.5,330.5 1815.5,330.5 1799.5,330.5C 1799.67,376.835 1799.5,423.168 1799,469.5C 1798,470.833 1797,472.167 1796,473.5C 1795.83,425.929 1795.33,378.429 1794.5,331C 1746.17,330.5 1697.83,330.333 1649.5,330.5C 1649.5,379.167 1649.5,427.833 1649.5,476.5C 1697.5,476.333 1745.5,476.5 1793.5,477C 1792.64,477.689 1791.98,478.522 1791.5,479.5C 1744.17,480.5 1696.84,480.833 1649.5,480.5C 1649.83,520.172 1649.5,559.839 1648.5,599.5C 1647.52,599.977 1646.69,600.643 1646,601.5C 1645.5,561.168 1645.33,520.835 1645.5,480.5C 1596.83,480.5 1548.17,480.5 1499.5,480.5C 1499.5,529.167 1499.5,577.833 1499.5,626.5C 1532.5,626.333 1565.5,626.5 1598.5,627C 1596.5,628 1594.5,629 1592.5,630C 1561.5,630.5 1530.5,630.667 1499.5,630.5C 1499.67,643.504 1499.5,656.504 1499,669.5C 1497.99,670.337 1496.82,670.67 1495.5,670.5C 1495.82,657.254 1495.49,644.087 1494.5,631C 1446.17,630.5 1397.83,630.333 1349.5,630.5C 1349.67,658.502 1349.5,686.502 1349,714.5C 1347.99,715.337 1346.82,715.67 1345.5,715.5C 1345.83,687.259 1345.5,659.093 1344.5,631C 1296.17,630.5 1247.83,630.333 1199.5,630.5C 1199.67,667.835 1199.5,705.168 1199,742.5C 1197.99,743.337 1196.82,743.67 1195.5,743.5C 1195.8,705.813 1195.47,668.147 1194.5,630.5C 1146.17,630.5 1097.83,630.5 1049.5,630.5C 1049.5,672.833 1049.5,715.167 1049.5,757.5C 1048.17,757.5 1046.83,757.5 1045.5,757.5C 1045.68,715.161 1045.34,672.827 1044.5,630.5C 996.167,630.5 947.833,630.5 899.5,630.5C 899.5,673.5 899.5,716.5 899.5,759.5C 898.167,759.5 896.833,759.5 895.5,759.5C 895.665,716.494 895.332,673.494 894.5,630.5C 846.167,630.5 797.833,630.5 749.5,630.5C 749.5,670.167 749.5,709.833 749.5,749.5C 748.167,749.5 746.833,749.5 745.5,749.5C 745.751,709.824 745.418,670.157 744.5,630.5C 696.167,630.5 647.833,630.5 599.5,630.5C 599.5,662.5 599.5,694.5 599.5,726.5C 598.167,726.5 596.833,726.5 595.5,726.5C 595.829,694.593 595.496,662.76 594.5,631C 546.168,630.5 497.834,630.333 449.5,630.5C 449.833,649.845 449.5,669.178 448.5,688.5C 447.833,688.167 447.167,687.833 446.5,687.5C 445.827,668.602 445.161,649.769 444.5,631C 396.833,630.667 349.167,630.333 301.5,630C 299.833,629.167 298.167,628.333 296.5,627.5C 295.831,578.599 295.164,529.766 294.5,481C 246.168,480.5 197.834,480.333 149.5,480.5C 149.667,496.837 149.5,513.17 149,529.5C 148,528.5 147,527.5 146,526.5C 145.5,511.17 145.333,495.837 145.5,480.5C 131.151,480.833 116.818,480.499 102.5,479.5C 102.023,478.522 101.357,477.689 100.5,477C 115.496,476.5 130.496,476.333 145.5,476.5C 145.5,427.833 145.5,379.167 145.5,330.5C 112.5,330.5 79.5,330.5 46.5,330.5C 46.5,329.167 46.5,327.833 46.5,326.5C 79.5,326.5 112.5,326.5 145.5,326.5C 145.258,294.832 144.925,263.165 144.5,231.5C 144.708,235.352 146.208,238.685 149,241.5C 149.333,231.167 149.667,220.833 150,210.5C 161.031,215.266 171.864,220.432 182.5,226C 212.355,236.519 243.021,240.852 274.5,239C 281.019,236.327 287.686,234.16 294.5,232.5C 294.833,248.5 295.167,264.5 295.5,280.5C 296.833,280.5 298.167,280.5 299.5,280.5C 299.5,295.833 299.5,311.167 299.5,326.5C 347.833,326.5 396.167,326.5 444.5,326.5C 444.5,278.167 444.5,229.833 444.5,181.5C 417.18,181.027 389.847,181.027 362.5,181.5C 370.316,180.508 378.316,180.174 386.5,180.5C 386.5,179.167 386.5,177.833 386.5,176.5C 405.833,176.5 425.167,176.5 444.5,176.5C 444.869,127.834 445.202,79.167 445.5,30.5C 396.825,30.2431 348.159,30.5764 299.5,31.5C 299.5,34.1667 299.5,36.8333 299.5,39.5C 298.206,38.7101 297.039,37.7101 296,36.5C 295.667,37.1667 295.333,37.8333 295,38.5C 294.667,46.1667 294.333,53.8333 294,61.5C 291.333,58.8333 288.667,56.1667 286,53.5C 283.187,44.6798 278.021,37.5131 270.5,32C 276.853,31.5134 283.186,30.8467 289.5,30C 279.631,20.2984 269.964,10.4651 260.5,0.5 Z"/></g>
<g><path style="opacity:1" fill="#000319" d="M 299.5,0.5 C 348.167,0.5 396.833,0.5 445.5,0.5C 445.5,9.16667 445.5,17.8333 445.5,26.5C 396.833,26.5 348.167,26.5 299.5,26.5C 299.5,17.8333 299.5,9.16667 299.5,0.5 Z"/></g>
<g><path style="opacity:1" fill="#00031f" d="M 594.5,0.5 C 612.5,0.5 630.5,0.5 648.5,0.5C 659.122,6.81374 670.122,12.6471 681.5,18C 685.5,20.6667 689.5,23.3333 693.5,26C 687.472,26.1697 681.472,26.6697 675.5,27.5C 673.565,28.213 673.232,29.213 674.5,30.5C 662.167,30.5 649.833,30.5 637.5,30.5C 630.833,30.5 624.167,30.5 617.5,30.5C 616.71,29.2058 615.71,28.0391 614.5,27C 609.511,26.5007 604.511,26.3341 599.5,26.5C 599.5,22.5 599.5,18.5 599.5,14.5C 598.178,14.67 597.011,14.3366 596,13.5C 595.265,9.18664 594.765,4.85331 594.5,0.5 Z"/></g>
<g><path style="opacity:1" fill="#000319" d="M 1499.5,0.5 C 1628.5,0.5 1757.5,0.5 1886.5,0.5C 1886.5,302.5 1886.5,604.5 1886.5,906.5C 1257.5,906.5 628.5,906.5 -0.5,906.5C -0.5,664.5 -0.5,422.5 -0.5,180.5C 13.4752,181.263 27.4752,181.763 41.5,182C 46.0108,183.836 50.6775,185.17 55.5,186C 59.7475,188.243 63.4142,191.243 66.5,195C 76.139,195.819 84.139,199.819 90.5,207C 100.121,207.811 108.121,211.811 114.5,219C 125.075,221.787 135.075,225.954 144.5,231.5C 144.925,263.165 145.258,294.832 145.5,326.5C 112.5,326.5 79.5,326.5 46.5,326.5C 46.5,327.833 46.5,329.167 46.5,330.5C 79.5,330.5 112.5,330.5 145.5,330.5C 145.5,379.167 145.5,427.833 145.5,476.5C 130.496,476.333 115.496,476.5 100.5,477C 101.357,477.689 102.023,478.522 102.5,479.5C 116.818,480.499 131.151,480.833 145.5,480.5C 145.333,495.837 145.5,511.17 146,526.5C 147,527.5 148,528.5 149,529.5C 149.5,513.17 149.667,496.837 149.5,480.5C 197.834,480.333 246.168,480.5 294.5,481C 295.164,529.766 295.831,578.599 296.5,627.5C 298.167,628.333 299.833,629.167 301.5,630C 349.167,630.333 396.833,630.667 444.5,631C 445.161,649.769 445.827,668.602 446.5,687.5C 447.167,687.833 447.833,688.167 448.5,688.5C 449.5,669.178 449.833,649.845 449.5,630.5C 497.834,630.333 546.168,630.5 594.5,631C 595.496,662.76 595.829,694.593 595.5,726.5C 596.833,726.5 598.167,726.5 599.5,726.5C 599.5,694.5 599.5,662.5 599.5,630.5C 647.833,630.5 696.167,630.5 744.5,630.5C 745.418,670.157 745.751,709.824 745.5,749.5C 746.833,749.5 748.167,749.5 749.5,749.5C 749.5,709.833 749.5,670.167 749.5,630.5C 797.833,630.5 846.167,630.5 894.5,630.5C 895.332,673.494 895.665,716.494 895.5,759.5C 896.833,759.5 898.167,759.5 899.5,759.5C 899.5,716.5 899.5,673.5 899.5,630.5C 947.833,630.5 996.167,630.5 1044.5,630.5C 1045.34,672.827 1045.68,715.161 1045.5,757.5C 1046.83,757.5 1048.17,757.5 1049.5,757.5C 1049.5,715.167 1049.5,672.833 1049.5,630.5C 1097.83,630.5 1146.17,630.5 1194.5,630.5C 1195.47,668.147 1195.8,705.813 1195.5,743.5C 1196.82,743.67 1197.99,743.337 1199,742.5C 1199.5,705.168 1199.67,667.835 1199.5,630.5C 1247.83,630.333 1296.17,630.5 1344.5,631C 1345.5,659.093 1345.83,687.259 1345.5,715.5C 1346.82,715.67 1347.99,715.337 1349,714.5C 1349.5,686.502 1349.67,658.502 1349.5,630.5C 1397.83,630.333 1446.17,630.5 1494.5,631C 1495.49,644.087 1495.82,657.254 1495.5,670.5C 1496.82,670.67 1497.99,670.337 1499,669.5C 1499.5,656.504 1499.67,643.504 1499.5,630.5C 1530.5,630.667 1561.5,630.5 1592.5,630C 1594.5,629 1596.5,628 1598.5,627C 1565.5,626.5 1532.5,626.333 1499.5,626.5C 1499.5,577.833 1499.5,529.167 1499.5,480.5C 1548.17,480.5 1596.83,480.5 1645.5,480.5C 1645.33,520.835 1645.5,561.168 1646,601.5C 1646.69,600.643 1647.52,599.977 1648.5,599.5C 1649.5,559.839 1649.83,520.172 1649.5,480.5C 1696.84,480.833 1744.17,480.5 1791.5,479.5C 1791.98,478.522 1792.64,477.689 1793.5,477C 1745.5,476.5 1697.5,476.333 1649.5,476.5C 1649.5,427.833 1649.5,379.167 1649.5,330.5C 1697.83,330.333 1746.17,330.5 1794.5,331C 1795.33,378.429 1795.83,425.929 1796,473.5C 1797,472.167 1798,470.833 1799,469.5C 1799.5,423.168 1799.67,376.835 1799.5,330.5C 1815.5,330.5 1831.5,330.5 1847.5,330.5C 1847.5,329.167 1847.5,327.833 1847.5,326.5C 1831.5,326.5 1815.5,326.5 1799.5,326.5C 1799.67,280.832 1799.5,235.165 1799,189.5C 1798,188.167 1797,186.833 1796,185.5C 1795.5,232.499 1795.33,279.499 1795.5,326.5C 1746.83,326.5 1698.17,326.5 1649.5,326.5C 1649.5,277.833 1649.5,229.167 1649.5,180.5C 1696.84,180.833 1744.17,180.5 1791.5,179.5C 1791.02,178.522 1790.36,177.689 1789.5,177C 1742.83,176.5 1696.17,176.333 1649.5,176.5C 1649.83,137.494 1649.5,98.4943 1648.5,59.5C 1647.52,59.0233 1646.69,58.3567 1646,57.5C 1645.5,97.1653 1645.33,136.832 1645.5,176.5C 1596.83,176.5 1548.17,176.5 1499.5,176.5C 1499.5,127.833 1499.5,79.1667 1499.5,30.5C 1531.17,30.6666 1562.84,30.5 1594.5,30C 1592.5,29 1590.5,28 1588.5,27C 1558.84,26.5 1529.17,26.3334 1499.5,26.5C 1499.5,17.8333 1499.5,9.16667 1499.5,0.5 Z"/></g>
<g><path style="opacity:1" fill="#1c1f32" d="M 134.5,0.5 C 142.833,0.5 151.167,0.5 159.5,0.5C 169.328,8.28282 178.661,16.7828 187.5,26C 190.833,26.3333 194.167,26.6667 197.5,27C 198.5,28 199.5,29 200.5,30C 198.285,31.0438 195.952,31.7105 193.5,32C 207.971,45.4707 222.138,59.304 236,73.5C 246.719,87.2186 257.052,101.219 267,115.5C 268.969,120.289 271.136,124.956 273.5,129.5C 272.963,130.741 272.296,131.908 271.5,133C 276.916,143.688 277.416,154.521 273,165.5C 269.5,169 266,172.5 262.5,176C 268.833,176.333 275.167,176.667 281.5,177C 280.5,178 279.5,179 278.5,180C 264.49,181.02 250.49,182.187 236.5,183.5C 215.12,182.237 193.786,180.737 172.5,179C 170.913,178.138 169.246,177.471 167.5,177C 175.833,176.667 184.167,176.333 192.5,176C 176.612,171.037 161.279,164.703 146.5,157C 145.237,153.942 144.237,150.775 143.5,147.5C 129.439,142.989 116.439,136.489 104.5,128C 68.5914,111.048 33.5914,92.5477 -0.5,72.5C -0.5,68.8333 -0.5,65.1667 -0.5,61.5C 21.6351,73.735 43.6351,86.235 65.5,99C 91.5,111.667 117.5,124.333 143.5,137C 144.125,139.8 144.792,142.634 145.5,145.5C 146.748,146.04 147.915,146.707 149,147.5C 149.186,145.1 149.686,142.766 150.5,140.5C 170.467,148.994 191.134,155.327 212.5,159.5C 219.948,158.537 227.281,157.037 234.5,155C 242.427,152.574 247.427,147.408 249.5,139.5C 245.43,127.457 241.264,115.457 237,103.5C 229.817,97.6581 224.15,90.6581 220,82.5C 203.917,65.4154 187.417,48.582 170.5,32C 173.576,31.6543 176.576,30.9876 179.5,30C 178.5,29 177.5,28 176.5,27C 171.833,26.6667 167.167,26.3333 162.5,26C 158.333,22.5 154.167,19 150,15.5C 149.667,12.5 149.333,9.5 149,6.5C 145.314,1.8617 143.647,2.52837 144,8.5C 140.642,5.96876 137.476,3.30209 134.5,0.5 Z"/></g>
<g><path style="opacity:1" fill="#000319" d="M 386.5,176.5 C 378.5,176.5 370.5,176.5 362.5,176.5C 362.667,163.829 362.5,151.162 362,138.5C 359.833,136.333 357.667,134.167 355.5,132C 356.793,131.51 358.127,131.343 359.5,131.5C 359.741,128.206 358.908,125.206 357,122.5C 354.667,120.167 352.333,117.833 350,115.5C 348.835,109.664 347.168,103.997 345,98.5C 341.279,94.2892 337.279,90.2892 333,86.5C 328.667,77.8333 324.333,69.1667 320,60.5C 312.964,53.6315 306.131,46.6315 299.5,39.5C 299.5,36.8333 299.5,34.1667 299.5,31.5C 348.159,30.5764 396.825,30.2431 445.5,30.5C 445.202,79.167 444.869,127.834 444.5,176.5C 425.167,176.5 405.833,176.5 386.5,176.5 Z"/></g>
<g><path style="opacity:1" fill="#000319" d="M 449.5,30.5 C 498.072,30.1695 546.572,30.5028 595,31.5C 594.583,79.822 594.416,128.155 594.5,176.5C 546.167,176.5 497.833,176.5 449.5,176.5C 449.5,127.833 449.5,79.1667 449.5,30.5 Z"/></g>
<g><path style="opacity:1" fill="#000319" d="M 617.5,30.5 C 624.167,30.5 630.833,30.5 637.5,30.5C 648.659,31.3306 659.993,31.8306 671.5,32C 683.632,37.463 695.299,43.7963 706.5,51C 711.5,52.6667 716.5,54.3333 721.5,56C 728.276,60.7211 735.609,64.3878 743.5,67C 744.479,73.7445 744.812,80.5778 744.5,87.5C 744.5,117.167 744.5,146.833 744.5,176.5C 697.833,176.5 651.167,176.5 604.5,176.5C 602.833,176.5 601.167,176.5 599.5,176.5C 599.5,127.833 599.5,79.1667 599.5,30.5C 605.5,30.5 611.5,30.5 617.5,30.5 Z"/></g>
<g><path style="opacity:1" fill="#00032e" d="M 678.5,0.5 C 687.5,0.5 696.5,0.5 705.5,0.5C 717.804,6.65184 730.137,12.8185 742.5,19C 744.278,21.1354 744.945,23.6354 744.5,26.5C 743.127,26.3433 741.793,26.51 740.5,27C 743.226,28.6876 746.059,30.1876 749,31.5C 749.725,30.9415 750.558,30.6082 751.5,30.5C 758.471,31.2618 765.471,31.7618 772.5,32C 779.371,33.7347 786.037,36.068 792.5,39C 799.272,40.534 806.106,41.7006 813,42.5C 820.422,41.6932 827.589,39.8598 834.5,37C 837.362,36.0695 839.695,34.4029 841.5,32C 847.252,31.6918 852.919,30.8585 858.5,29.5C 858.833,28.8333 859.167,28.1667 859.5,27.5C 854.208,26.5052 848.875,26.1718 843.5,26.5C 845.674,17.6368 844.674,8.97017 840.5,0.5C 846.5,0.5 852.5,0.5 858.5,0.5C 862.698,8.62437 865.032,17.291 865.5,26.5C 869.833,26.5 874.167,26.5 878.5,26.5C 878.473,28.1993 877.806,29.5326 876.5,30.5C 872.548,31.2721 868.548,31.6054 864.5,31.5C 864.452,35.8131 863.285,39.8131 861,43.5C 853.874,52.9804 844.374,58.1471 832.5,59C 819.857,60.4777 807.523,59.1443 795.5,55C 780.277,49.7213 765.277,43.888 750.5,37.5C 749.52,40.0865 749.187,42.7531 749.5,45.5C 748.022,45.762 746.689,45.4287 745.5,44.5C 744.906,41.1696 744.24,37.8363 743.5,34.5C 741.833,33.6667 740.167,32.8333 738.5,32C 730.798,31.7062 723.131,31.0395 715.5,30C 713.163,28.049 710.663,27.549 708,28.5C 706.775,28.1377 705.609,27.6377 704.5,27C 711.833,26.6667 719.167,26.3333 726.5,26C 709.931,18.2202 693.931,9.72022 678.5,0.5 Z"/></g>
<g><path style="opacity:1" fill="#000336" d="M 705.5,0.5 C 750.5,0.5 795.5,0.5 840.5,0.5C 844.674,8.97017 845.674,17.6368 843.5,26.5C 848.875,26.1718 854.208,26.5052 859.5,27.5C 859.167,28.1667 858.833,28.8333 858.5,29.5C 852.919,30.8585 847.252,31.6918 841.5,32C 839.695,34.4029 837.362,36.0695 834.5,37C 827.589,39.8598 820.422,41.6932 813,42.5C 806.106,41.7006 799.272,40.534 792.5,39C 786.037,36.068 779.371,33.7347 772.5,32C 765.471,31.7618 758.471,31.2618 751.5,30.5C 750.558,30.6082 749.725,30.9415 749,31.5C 746.059,30.1876 743.226,28.6876 740.5,27C 741.793,26.51 743.127,26.3433 744.5,26.5C 744.945,23.6354 744.278,21.1354 742.5,19C 730.137,12.8185 717.804,6.65184 705.5,0.5 Z"/></g>
<g><path style="opacity:1" fill="#000328" d="M 648.5,0.5 C 658.5,0.5 668.5,0.5 678.5,0.5C 693.931,9.72022 709.931,18.2202 726.5,26C 719.167,26.3333 711.833,26.6667 704.5,27C 705.609,27.6377 706.775,28.1377 708,28.5C 710.663,27.549 713.163,28.049 715.5,30C 723.131,31.0395 730.798,31.7062 738.5,32C 740.167,32.8333 741.833,33.6667 743.5,34.5C 744.24,37.8363 744.906,41.1696 745.5,44.5C 746.689,45.4287 748.022,45.762 749.5,45.5C 749.187,42.7531 749.52,40.0865 750.5,37.5C 765.277,43.888 780.277,49.7213 795.5,55C 807.523,59.1443 819.857,60.4777 832.5,59C 844.374,58.1471 853.874,52.9804 861,43.5C 863.285,39.8131 864.452,35.8131 864.5,31.5C 868.548,31.6054 872.548,31.2721 876.5,30.5C 882.509,30.3338 888.509,30.5005 894.5,31C 891.183,31.4983 887.85,31.665 884.5,31.5C 883.473,40.0886 881.307,48.4219 878,56.5C 868.693,66.7405 857.193,73.2405 843.5,76C 826.108,77.9278 809.108,76.2611 792.5,71C 777.928,65.7125 763.594,59.8791 749.5,53.5C 749.665,56.8499 749.498,60.1832 749,63.5C 747.989,64.3366 746.822,64.67 745.5,64.5C 745.031,60.149 744.364,55.8157 743.5,51.5C 731.281,45.5582 719.281,39.3916 707.5,33C 696.564,31.6839 685.564,30.8506 674.5,30.5C 673.232,29.213 673.565,28.213 675.5,27.5C 681.472,26.6697 687.472,26.1697 693.5,26C 689.5,23.3333 685.5,20.6667 681.5,18C 670.122,12.6471 659.122,6.81374 648.5,0.5 Z"/></g>
<g><path style="opacity:1" fill="#000319" d="M 933.5,30.5 C 970.5,30.5 1007.5,30.5 1044.5,30.5C 1044.5,79.1667 1044.5,127.833 1044.5,176.5C 996.167,176.5 947.833,176.5 899.5,176.5C 899.5,153.5 899.5,130.5 899.5,107.5C 899.333,91.4965 899.5,75.4965 900,59.5C 903.715,50.4248 905.549,41.0915 905.5,31.5C 914.849,31.5167 924.182,31.1833 933.5,30.5 Z"/></g>
<g><path style="opacity:1" fill="#000319" d="M 1194.5,176.5 C 1146.17,176.5 1097.83,176.5 1049.5,176.5C 1049.5,154.833 1049.5,133.167 1049.5,111.5C 1049.5,84.5 1049.5,57.5 1049.5,30.5C 1097.83,30.5 1146.17,30.5 1194.5,30.5C 1194.5,79.1667 1194.5,127.833 1194.5,176.5 Z"/></g>
<g><path style="opacity:1" fill="#000319" d="M 1289.5,176.5 C 1259.5,176.5 1229.5,176.5 1199.5,176.5C 1199.5,164.833 1199.5,153.167 1199.5,141.5C 1199.5,104.5 1199.5,67.5 1199.5,30.5C 1248.07,30.1695 1296.57,30.5028 1345,31.5C 1344.68,79.8274 1344.51,128.161 1344.5,176.5C 1326.17,176.5 1307.83,176.5 1289.5,176.5 Z"/></g>
<g><path style="opacity:1" fill="#000319" d="M 1349.5,30.5 C 1398.07,30.1695 1446.57,30.5028 1495,31.5C 1495.53,79.8356 1495.37,128.169 1494.5,176.5C 1446.17,176.5 1397.83,176.5 1349.5,176.5C 1349.5,127.833 1349.5,79.1667 1349.5,30.5 Z"/></g>
<g><path style="opacity:1" fill="#000322" d="M 858.5,0.5 C 872.167,0.5 885.833,0.5 899.5,0.5C 900.483,5.95397 901.983,11.2873 904,16.5C 904.498,19.8168 904.665,23.1501 904.5,26.5C 920.225,25.9941 929.892,26.3275 933.5,27.5C 933.5,28.5 933.5,29.5 933.5,30.5C 924.182,31.1833 914.849,31.5167 905.5,31.5C 905.549,41.0915 903.715,50.4248 900,59.5C 899.5,75.4965 899.333,91.4965 899.5,107.5C 898.167,107.5 896.833,107.5 895.5,107.5C 895.768,105.901 895.434,104.568 894.5,103.5C 894.667,92.1618 894.5,80.8284 894,69.5C 889.833,72.3333 886.333,75.8333 883.5,80C 876.658,83.9216 869.658,87.5883 862.5,91C 853.838,92.6117 845.172,94.1117 836.5,95.5C 827.964,93.7045 819.297,92.5379 810.5,92C 795.699,86.7334 780.699,82.0668 765.5,78C 760.624,75.5415 755.624,73.3748 750.5,71.5C 749.501,83.4815 749.168,95.4815 749.5,107.5C 748.167,107.5 746.833,107.5 745.5,107.5C 746.189,100.786 745.855,94.1195 744.5,87.5C 744.812,80.5778 744.479,73.7445 743.5,67C 735.609,64.3878 728.276,60.7211 721.5,56C 716.5,54.3333 711.5,52.6667 706.5,51C 695.299,43.7963 683.632,37.463 671.5,32C 659.993,31.8306 648.659,31.3306 637.5,30.5C 649.833,30.5 662.167,30.5 674.5,30.5C 685.564,30.8506 696.564,31.6839 707.5,33C 719.281,39.3916 731.281,45.5582 743.5,51.5C 744.364,55.8157 745.031,60.149 745.5,64.5C 746.822,64.67 747.989,64.3366 749,63.5C 749.498,60.1832 749.665,56.8499 749.5,53.5C 763.594,59.8791 777.928,65.7125 792.5,71C 809.108,76.2611 826.108,77.9278 843.5,76C 857.193,73.2405 868.693,66.7405 878,56.5C 881.307,48.4219 883.473,40.0886 884.5,31.5C 887.85,31.665 891.183,31.4983 894.5,31C 888.509,30.5005 882.509,30.3338 876.5,30.5C 877.806,29.5326 878.473,28.1993 878.5,26.5C 874.167,26.5 869.833,26.5 865.5,26.5C 865.032,17.291 862.698,8.62437 858.5,0.5 Z"/></g>
<g><path style="opacity:1" fill="#06091e" d="M 229.5,0.5 C 239.833,0.5 250.167,0.5 260.5,0.5C 269.964,10.4651 279.631,20.2984 289.5,30C 283.186,30.8467 276.853,31.5134 270.5,32C 278.021,37.5131 283.187,44.6798 286,53.5C 288.667,56.1667 291.333,58.8333 294,61.5C 294.333,53.8333 294.667,46.1667 295,38.5C 295.333,37.8333 295.667,37.1667 296,36.5C 297.039,37.7101 298.206,38.7101 299.5,39.5C 306.131,46.6315 312.964,53.6315 320,60.5C 324.333,69.1667 328.667,77.8333 333,86.5C 337.279,90.2892 341.279,94.2892 345,98.5C 347.168,103.997 348.835,109.664 350,115.5C 352.333,117.833 354.667,120.167 357,122.5C 358.908,125.206 359.741,128.206 359.5,131.5C 358.127,131.343 356.793,131.51 355.5,132C 357.667,134.167 359.833,136.333 362,138.5C 362.5,151.162 362.667,163.829 362.5,176.5C 370.5,176.5 378.5,176.5 386.5,176.5C 386.5,177.833 386.5,179.167 386.5,180.5C 378.316,180.174 370.316,180.508 362.5,181.5C 361.879,190.103 360.046,198.437 357,206.5C 353,210.5 349,214.5 345,218.5C 341.802,224.095 339.802,230.095 339,236.5C 337.786,238.049 336.286,239.215 334.5,240C 326.259,240.296 319.592,243.629 314.5,250C 309.883,252.77 304.883,254.27 299.5,254.5C 299.5,263.167 299.5,271.833 299.5,280.5C 298.167,280.5 296.833,280.5 295.5,280.5C 295.167,264.5 294.833,248.5 294.5,232.5C 287.686,234.16 281.019,236.327 274.5,239C 243.021,240.852 212.355,236.519 182.5,226C 171.864,220.432 161.031,215.266 150,210.5C 149.667,220.833 149.333,231.167 149,241.5C 146.208,238.685 144.708,235.352 144.5,231.5C 135.075,225.954 125.075,221.787 114.5,219C 108.121,211.811 100.121,207.811 90.5,207C 84.139,199.819 76.139,195.819 66.5,195C 63.4142,191.243 59.7475,188.243 55.5,186C 50.6775,185.17 46.0108,183.836 41.5,182C 27.4752,181.763 13.4752,181.263 -0.5,180.5C -0.5,162.5 -0.5,144.5 -0.5,126.5C 5.01626,129.391 10.3496,132.557 15.5,136C 29.1667,142.333 42.8333,148.667 56.5,155C 67.2843,164.06 79.2843,171.06 92.5,176C 85.1667,176.333 77.8333,176.667 70.5,177C 71.1667,177.667 71.8333,178.333 72.5,179C 82.0479,180.705 91.7146,181.705 101.5,182C 109.51,184.673 117.51,187.34 125.5,190C 129.5,192.667 133.5,195.333 137.5,198C 140.022,199.341 142.689,200.174 145.5,200.5C 145.5,202.167 145.5,203.833 145.5,205.5C 146.822,205.33 147.989,205.663 149,206.5C 149.219,205.062 149.719,203.729 150.5,202.5C 158.237,207.136 166.57,210.303 175.5,212C 187.405,220.523 200.738,224.857 215.5,225C 230.574,231.237 246.241,233.237 262.5,231C 270.029,228.912 277.695,227.579 285.5,227C 288.405,225.963 291.239,224.796 294,223.5C 294.526,226.272 295.359,228.938 296.5,231.5C 297.478,231.023 298.311,230.357 299,229.5C 299.333,225.833 299.667,222.167 300,218.5C 304.366,213.799 309.033,209.466 314,205.5C 316.282,201.282 319.282,197.616 323,194.5C 325.684,190.137 327.518,185.47 328.5,180.5C 331.572,180.817 334.572,180.484 337.5,179.5C 337.833,178.833 338.167,178.167 338.5,177.5C 335.914,176.52 333.247,176.187 330.5,176.5C 332.339,160.945 330.005,146.111 323.5,132C 324.167,131.667 324.833,131.333 325.5,131C 319.335,117.503 312.501,104.337 305,91.5C 303.333,89.8333 301.667,88.1667 300,86.5C 299.667,77.8333 299.333,69.1667 299,60.5C 298,59.5 297,58.5 296,57.5C 294.865,64.7819 294.199,72.1153 294,79.5C 291.667,75.8333 289.333,72.1667 287,68.5C 276.176,55.6763 264.676,43.5096 252.5,32C 257.882,31.6927 263.215,31.026 268.5,30C 265.553,26.9858 261.887,25.6524 257.5,26C 254.498,23.497 251.165,21.497 247.5,20C 241.225,13.7088 235.225,7.20881 229.5,0.5 Z"/></g>
<g><path style="opacity:1" fill="#00021a" d="M 894.5,103.5 C 894.5,127.833 894.5,152.167 894.5,176.5C 846.167,176.5 797.833,176.5 749.5,176.5C 749.5,153.5 749.5,130.5 749.5,107.5C 749.168,95.4815 749.501,83.4815 750.5,71.5C 755.624,73.3748 760.624,75.5415 765.5,78C 780.699,82.0668 795.699,86.7334 810.5,92C 819.297,92.5379 827.964,93.7045 836.5,95.5C 845.172,94.1117 853.838,92.6117 862.5,91C 869.658,87.5883 876.658,83.9216 883.5,80C 886.333,75.8333 889.833,72.3333 894,69.5C 894.5,80.8284 894.667,92.1618 894.5,103.5 Z"/></g>
<g><path style="opacity:1" fill="#15182c" d="M 159.5,0.5 C 170.5,0.5 181.5,0.5 192.5,0.5C 202.19,11.3627 212.856,21.196 224.5,30C 221.576,30.9876 218.576,31.6543 215.5,32C 229.971,47.4714 244.804,62.638 260,77.5C 266,85.5 272,93.5 278,101.5C 284.437,113.039 289.771,125.039 294,137.5C 294.136,129.438 294.803,121.438 296,113.5C 297,114.833 298,116.167 299,117.5C 299.5,137.164 299.667,156.831 299.5,176.5C 303.226,176.177 306.893,176.511 310.5,177.5C 310.167,178.167 309.833,178.833 309.5,179.5C 306.296,180.204 303.129,180.87 300,181.5C 299.667,187.5 299.333,193.5 299,199.5C 298,200.5 297,201.5 296,202.5C 294.661,195.574 294.161,188.574 294.5,181.5C 291.813,181.336 289.146,181.503 286.5,182C 282.732,187.769 277.732,192.102 271.5,195C 262.181,198.913 252.514,201.413 242.5,202.5C 215.999,198.834 190.332,192 165.5,182C 160.447,181.783 155.447,181.283 150.5,180.5C 149.692,182.423 149.192,184.423 149,186.5C 146.09,185.55 144.923,183.55 145.5,180.5C 142.813,180.664 140.146,180.497 137.5,180C 136.027,179.29 135.36,178.124 135.5,176.5C 138.5,176.5 141.5,176.5 144.5,176.5C 144.714,174.856 144.38,173.356 143.5,172C 137.551,170.027 132.217,167.027 127.5,163C 105.268,155.051 84.2685,144.717 64.5,132C 53.1356,126.318 41.8022,120.651 30.5,115C 20.1113,108.811 9.77796,102.644 -0.5,96.5C -0.5,88.5 -0.5,80.5 -0.5,72.5C 33.5914,92.5477 68.5914,111.048 104.5,128C 116.439,136.489 129.439,142.989 143.5,147.5C 144.237,150.775 145.237,153.942 146.5,157C 161.279,164.703 176.612,171.037 192.5,176C 184.167,176.333 175.833,176.667 167.5,177C 169.246,177.471 170.913,178.138 172.5,179C 193.786,180.737 215.12,182.237 236.5,183.5C 250.49,182.187 264.49,181.02 278.5,180C 279.5,179 280.5,178 281.5,177C 275.167,176.667 268.833,176.333 262.5,176C 266,172.5 269.5,169 273,165.5C 277.416,154.521 276.916,143.688 271.5,133C 272.296,131.908 272.963,130.741 273.5,129.5C 271.136,124.956 268.969,120.289 267,115.5C 257.052,101.219 246.719,87.2186 236,73.5C 222.138,59.304 207.971,45.4707 193.5,32C 195.952,31.7105 198.285,31.0438 200.5,30C 199.5,29 198.5,28 197.5,27C 194.167,26.6667 190.833,26.3333 187.5,26C 178.661,16.7828 169.328,8.28282 159.5,0.5 Z"/></g>
<g><path style="opacity:1" fill="#000319" d="M 299.5,280.5 C 299.5,271.833 299.5,263.167 299.5,254.5C 304.883,254.27 309.883,252.77 314.5,250C 319.592,243.629 326.259,240.296 334.5,240C 336.286,239.215 337.786,238.049 339,236.5C 339.802,230.095 341.802,224.095 345,218.5C 349,214.5 353,210.5 357,206.5C 360.046,198.437 361.879,190.103 362.5,181.5C 389.847,181.027 417.18,181.027 444.5,181.5C 444.5,229.833 444.5,278.167 444.5,326.5C 396.167,326.5 347.833,326.5 299.5,326.5C 299.5,311.167 299.5,295.833 299.5,280.5 Z"/></g>
<g><path style="opacity:1" fill="#000319" d="M 1499.5,180.5 C 1548.17,180.5 1596.83,180.5 1645.5,180.5C 1645.5,229.167 1645.5,277.833 1645.5,326.5C 1596.83,326.5 1548.17,326.5 1499.5,326.5C 1499.5,277.833 1499.5,229.167 1499.5,180.5 Z"/></g>
<g><path style="opacity:1" fill="#0e1125" d="M 192.5,0.5 C 204.833,0.5 217.167,0.5 229.5,0.5C 235.225,7.20881 241.225,13.7088 247.5,20C 251.165,21.497 254.498,23.497 257.5,26C 261.887,25.6524 265.553,26.9858 268.5,30C 263.215,31.026 257.882,31.6927 252.5,32C 264.676,43.5096 276.176,55.6763 287,68.5C 289.333,72.1667 291.667,75.8333 294,79.5C 294.199,72.1153 294.865,64.7819 296,57.5C 297,58.5 298,59.5 299,60.5C 299.333,69.1667 299.667,77.8333 300,86.5C 301.667,88.1667 303.333,89.8333 305,91.5C 312.501,104.337 319.335,117.503 325.5,131C 324.833,131.333 324.167,131.667 323.5,132C 330.005,146.111 332.339,160.945 330.5,176.5C 333.247,176.187 335.914,176.52 338.5,177.5C 338.167,178.167 337.833,178.833 337.5,179.5C 334.572,180.484 331.572,180.817 328.5,180.5C 327.518,185.47 325.684,190.137 323,194.5C 319.282,197.616 316.282,201.282 314,205.5C 309.033,209.466 304.366,213.799 300,218.5C 299.667,222.167 299.333,225.833 299,229.5C 298.311,230.357 297.478,231.023 296.5,231.5C 295.359,228.938 294.526,226.272 294,223.5C 291.239,224.796 288.405,225.963 285.5,227C 277.695,227.579 270.029,228.912 262.5,231C 246.241,233.237 230.574,231.237 215.5,225C 200.738,224.857 187.405,220.523 175.5,212C 166.57,210.303 158.237,207.136 150.5,202.5C 149.719,203.729 149.219,205.062 149,206.5C 147.989,205.663 146.822,205.33 145.5,205.5C 145.5,203.833 145.5,202.167 145.5,200.5C 142.689,200.174 140.022,199.341 137.5,198C 133.5,195.333 129.5,192.667 125.5,190C 117.51,187.34 109.51,184.673 101.5,182C 91.7146,181.705 82.0479,180.705 72.5,179C 71.8333,178.333 71.1667,177.667 70.5,177C 77.8333,176.667 85.1667,176.333 92.5,176C 79.2843,171.06 67.2843,164.06 56.5,155C 42.8333,148.667 29.1667,142.333 15.5,136C 10.3496,132.557 5.01626,129.391 -0.5,126.5C -0.5,116.5 -0.5,106.5 -0.5,96.5C 9.77796,102.644 20.1113,108.811 30.5,115C 41.8022,120.651 53.1356,126.318 64.5,132C 84.2685,144.717 105.268,155.051 127.5,163C 132.217,167.027 137.551,170.027 143.5,172C 144.38,173.356 144.714,174.856 144.5,176.5C 141.5,176.5 138.5,176.5 135.5,176.5C 135.36,178.124 136.027,179.29 137.5,180C 140.146,180.497 142.813,180.664 145.5,180.5C 144.923,183.55 146.09,185.55 149,186.5C 149.192,184.423 149.692,182.423 150.5,180.5C 155.447,181.283 160.447,181.783 165.5,182C 190.332,192 215.999,198.834 242.5,202.5C 252.514,201.413 262.181,198.913 271.5,195C 277.732,192.102 282.732,187.769 286.5,182C 289.146,181.503 291.813,181.336 294.5,181.5C 294.161,188.574 294.661,195.574 296,202.5C 297,201.5 298,200.5 299,199.5C 299.333,193.5 299.667,187.5 300,181.5C 303.129,180.87 306.296,180.204 309.5,179.5C 309.833,178.833 310.167,178.167 310.5,177.5C 306.893,176.511 303.226,176.177 299.5,176.5C 299.667,156.831 299.5,137.164 299,117.5C 298,116.167 297,114.833 296,113.5C 294.803,121.438 294.136,129.438 294,137.5C 289.771,125.039 284.437,113.039 278,101.5C 272,93.5 266,85.5 260,77.5C 244.804,62.638 229.971,47.4714 215.5,32C 218.576,31.6543 221.576,30.9876 224.5,30C 212.856,21.196 202.19,11.3627 192.5,0.5 Z"/></g>
<g><path style="opacity:1" fill="#c8a9f6" d="M 1193.5,314.5 C 1195.99,316.805 1197.99,319.472 1199.5,322.5C 1199.5,334.5 1199.5,346.5 1199.5,358.5C 1197.83,358.5 1196.17,358.5 1194.5,358.5C 1191.5,358.5 1188.5,358.5 1185.5,358.5C 1185.67,348.161 1185.5,337.828 1185,327.5C 1179.97,322.003 1175.3,322.336 1171,328.5C 1170.5,338.494 1170.33,348.494 1170.5,358.5C 1165.83,358.5 1161.17,358.5 1156.5,358.5C 1156.5,336.167 1156.5,313.833 1156.5,291.5C 1161.17,291.5 1165.83,291.5 1170.5,291.5C 1170.33,300.506 1170.5,309.506 1171,318.5C 1177.53,312.128 1185.03,310.795 1193.5,314.5 Z"/></g>
<g><path style="opacity:1" fill="#fafafa" d="M 472.5,295.5 C 477.5,295.5 482.5,295.5 487.5,295.5C 487.5,303.833 487.5,312.167 487.5,320.5C 495.833,320.5 504.167,320.5 512.5,320.5C 512.5,312.167 512.5,303.833 512.5,295.5C 517.5,295.5 522.5,295.5 527.5,295.5C 527.5,316.5 527.5,337.5 527.5,358.5C 522.5,358.5 517.5,358.5 512.5,358.5C 512.5,350.167 512.5,341.833 512.5,333.5C 504.016,332.507 495.349,332.174 486.5,332.5C 486.5,341.167 486.5,349.833 486.5,358.5C 481.833,358.5 477.167,358.5 472.5,358.5C 472.5,337.5 472.5,316.5 472.5,295.5 Z"/></g>
<g><path style="opacity:1" fill="#c6a8f3" d="M 899.5,358.5 C 898.167,343.5 898.167,328.5 899.5,313.5C 904.167,313.5 908.833,313.5 913.5,313.5C 913.34,315.199 913.506,316.866 914,318.5C 919.743,312.401 926.577,310.901 934.5,314C 936.976,315.309 938.976,317.142 940.5,319.5C 946.854,312.475 954.52,310.641 963.5,314C 967.325,316.488 969.492,319.988 970,324.5C 970.5,335.828 970.667,347.162 970.5,358.5C 965.5,358.5 960.5,358.5 955.5,358.5C 955.667,347.828 955.5,337.161 955,326.5C 949.956,322.174 945.622,322.84 942,328.5C 941.5,338.494 941.334,348.494 941.5,358.5C 936.833,358.5 932.167,358.5 927.5,358.5C 927.666,348.161 927.5,337.828 927,327.5C 921.919,322.014 917.252,322.347 913,328.5C 912.5,338.494 912.334,348.494 912.5,358.5C 908.167,358.5 903.833,358.5 899.5,358.5 Z"/></g>
<g><path style="opacity:1" fill="#c6a7f3" d="M 1344.5,312.5 C 1346.17,312.5 1347.83,312.5 1349.5,312.5C 1368.19,314.52 1375.69,324.854 1372,343.5C 1368.33,354.095 1360.83,359.428 1349.5,359.5C 1347.83,359.5 1346.17,359.5 1344.5,359.5C 1328.11,356.245 1321.28,346.245 1324,329.5C 1327.38,319.614 1334.22,313.947 1344.5,312.5 Z"/></g>
<g><path style="opacity:1" fill="#f4f4f5" d="M 556.5,313.5 C 556.5,328.5 556.5,343.5 556.5,358.5C 551.5,358.5 546.5,358.5 541.5,358.5C 541.5,343.5 541.5,328.5 541.5,313.5C 546.5,313.5 551.5,313.5 556.5,313.5 Z"/></g>
<g><path style="opacity:1" fill="#c4a6f2" d="M 1422.5,326.5 C 1421.07,327.78 1420.4,329.447 1420.5,331.5C 1415.38,345.672 1409.54,359.672 1403,373.5C 1396.89,380.092 1389.39,382.258 1380.5,380C 1379.21,376.214 1379.21,372.38 1380.5,368.5C 1389.6,371.446 1394.6,368.112 1395.5,358.5C 1390.04,343.581 1384.04,328.914 1377.5,314.5C 1383.05,313.194 1388.55,313.194 1394,314.5C 1397,324.5 1400,334.5 1403,344.5C 1405.94,334.235 1409.11,324.068 1412.5,314C 1417.2,313.172 1421.87,313.338 1426.5,314.5C 1424.59,318.323 1423.25,322.323 1422.5,326.5 Z"/></g>
<g><path style="opacity:1" fill="#0a0c20" d="M 1344.5,323.5 C 1356.46,322.975 1360.96,328.642 1358,340.5C 1355.4,348.412 1350.23,350.579 1342.5,347C 1338.77,341.757 1337.61,335.924 1339,329.5C 1340.36,326.977 1342.19,324.977 1344.5,323.5 Z"/></g>
<g><path style="opacity:1" fill="#000319" d="M 149.5,330.5 C 197.833,330.5 246.167,330.5 294.5,330.5C 294.454,379.17 294.788,427.837 295.5,476.5C 246.833,476.5 198.167,476.5 149.5,476.5C 149.5,427.833 149.5,379.167 149.5,330.5 Z"/></g>
<g><path style="opacity:1" fill="#000319" d="M 299.5,330.5 C 347.83,331.2 396.163,331.533 444.5,331.5C 444.5,379.833 444.5,428.167 444.5,476.5C 396.167,476.5 347.833,476.5 299.5,476.5C 299.5,427.833 299.5,379.167 299.5,330.5 Z"/></g>
<g><path style="opacity:1" fill="#000319" d="M 1549.5,330.5 C 1581.41,330.171 1613.24,330.504 1645,331.5C 1645.5,379.832 1645.67,428.166 1645.5,476.5C 1596.83,476.5 1548.17,476.5 1499.5,476.5C 1499.5,428.167 1499.5,379.833 1499.5,331.5C 1516.34,331.83 1533.01,331.497 1549.5,330.5 Z"/></g>
<g><path style="opacity:1" fill="#000319" d="M 594.5,326.5 C 582.167,326.5 569.833,326.5 557.5,326.5C 557.818,321.968 557.485,317.634 556.5,313.5C 551.5,313.5 546.5,313.5 541.5,313.5C 541.5,328.5 541.5,343.5 541.5,358.5C 546.5,358.5 551.5,358.5 556.5,358.5C 557.493,349.682 557.827,340.682 557.5,331.5C 569.833,331.5 582.167,331.5 594.5,331.5C 594.5,379.833 594.5,428.167 594.5,476.5C 546.167,476.5 497.833,476.5 449.5,476.5C 449.5,428.167 449.5,379.833 449.5,331.5C 456.833,331.5 464.167,331.5 471.5,331.5C 471.173,340.682 471.507,349.682 472.5,358.5C 477.167,358.5 481.833,358.5 486.5,358.5C 487.493,350.35 487.826,342.017 487.5,333.5C 495.833,333.5 504.167,333.5 512.5,333.5C 512.5,341.833 512.5,350.167 512.5,358.5C 517.5,358.5 522.5,358.5 527.5,358.5C 527.5,337.5 527.5,316.5 527.5,295.5C 522.5,295.5 517.5,295.5 512.5,295.5C 512.5,303.833 512.5,312.167 512.5,320.5C 504.167,320.5 495.833,320.5 487.5,320.5C 487.5,312.167 487.5,303.833 487.5,295.5C 482.5,295.5 477.5,295.5 472.5,295.5C 471.506,305.653 471.172,315.986 471.5,326.5C 464.167,326.5 456.833,326.5 449.5,326.5C 449.5,278.167 449.5,229.833 449.5,181.5C 497.833,181.5 546.167,181.5 594.5,181.5C 594.5,229.833 594.5,278.167 594.5,326.5 Z"/></g>
<g><path style="opacity:1" fill="#f4f4f5" d="M 545.5,291.5 C 556.301,290.112 559.634,294.279 555.5,304C 550.637,306.329 546.137,305.829 542,302.5C 540.518,297.774 541.685,294.107 545.5,291.5 Z"/></g>
<g><path style="opacity:1" fill="#010419" d="M 1044.5,226.5 C 1043.33,224.35 1042.33,222.016 1041.5,219.5C 1040.31,218.571 1038.98,218.238 1037.5,218.5C 1036.75,222.677 1035.41,226.677 1033.5,230.5C 1034,230.833 1034.5,231.167 1035,231.5C 1036.29,229.915 1037.79,228.581 1039.5,227.5C 1041.58,228.323 1043.24,229.656 1044.5,231.5C 1044.5,260.5 1044.5,289.5 1044.5,318.5C 1037.12,329.096 1036.62,340.096 1043,351.5C 1050.39,358.85 1059.23,361.35 1069.5,359C 1073.8,358.102 1077.63,356.269 1081,353.5C 1088.49,343.558 1089.49,332.891 1084,321.5C 1074.37,312.302 1063.2,309.968 1050.5,314.5C 1049.5,287.005 1049.17,259.338 1049.5,231.5C 1050.16,223.9 1052.16,223.567 1055.5,230.5C 1056.36,231.583 1057.36,231.749 1058.5,231C 1057.41,228.828 1056.08,226.828 1054.5,225C 1057.9,219.538 1056.24,217.371 1049.5,218.5C 1049.5,206.167 1049.5,193.833 1049.5,181.5C 1097.83,181.5 1146.17,181.5 1194.5,181.5C 1194.83,226.003 1194.5,270.336 1193.5,314.5C 1185.03,310.795 1177.53,312.128 1171,318.5C 1170.5,309.506 1170.33,300.506 1170.5,291.5C 1165.83,291.5 1161.17,291.5 1156.5,291.5C 1156.5,313.833 1156.5,336.167 1156.5,358.5C 1161.17,358.5 1165.83,358.5 1170.5,358.5C 1170.33,348.494 1170.5,338.494 1171,328.5C 1175.3,322.336 1179.97,322.003 1185,327.5C 1185.5,337.828 1185.67,348.161 1185.5,358.5C 1188.5,358.5 1191.5,358.5 1194.5,358.5C 1194.5,397.833 1194.5,437.167 1194.5,476.5C 1146.17,476.5 1097.83,476.5 1049.5,476.5C 1049.5,471.5 1049.5,466.5 1049.5,461.5C 1054.93,460.534 1058.77,457.534 1061,452.5C 1063.02,436.856 1056.19,430.356 1040.5,433C 1032.39,437.064 1029.56,443.564 1032,452.5C 1034.14,458.321 1038.31,461.321 1044.5,461.5C 1044.5,466.5 1044.5,471.5 1044.5,476.5C 996.167,476.5 947.833,476.5 899.5,476.5C 899.5,471.167 899.5,465.833 899.5,460.5C 900.833,460.5 902.167,460.5 903.5,460.5C 903.5,447.167 903.5,433.833 903.5,420.5C 902.167,420.5 900.833,420.5 899.5,420.5C 899.5,399.833 899.5,379.167 899.5,358.5C 903.833,358.5 908.167,358.5 912.5,358.5C 912.334,348.494 912.5,338.494 913,328.5C 917.252,322.347 921.919,322.014 927,327.5C 927.5,337.828 927.666,348.161 927.5,358.5C 932.167,358.5 936.833,358.5 941.5,358.5C 941.334,348.494 941.5,338.494 942,328.5C 945.622,322.84 949.956,322.174 955,326.5C 955.5,337.161 955.667,347.828 955.5,358.5C 960.5,358.5 965.5,358.5 970.5,358.5C 970.667,347.162 970.5,335.828 970,324.5C 969.492,319.988 967.325,316.488 963.5,314C 954.52,310.641 946.854,312.475 940.5,319.5C 938.976,317.142 936.976,315.309 934.5,314C 926.577,310.901 919.743,312.401 914,318.5C 913.506,316.866 913.34,315.199 913.5,313.5C 908.833,313.5 904.167,313.5 899.5,313.5C 899.5,286.167 899.5,258.833 899.5,231.5C 901.912,231.306 902.912,229.973 902.5,227.5C 906.241,226.599 908.241,227.932 908.5,231.5C 909.552,231.649 910.552,231.483 911.5,231C 909.731,226.965 908.398,222.798 907.5,218.5C 906.167,218.5 904.833,218.5 903.5,218.5C 902.5,221.833 901.5,225.167 900.5,228.5C 899.504,213.009 899.17,197.342 899.5,181.5C 947.833,181.5 996.167,181.5 1044.5,181.5C 1044.5,196.5 1044.5,211.5 1044.5,226.5 Z"/></g>
<g><path style="opacity:1" fill="#c4a6f2" d="M 1044.5,318.5 C 1046.8,317.525 1048.8,316.192 1050.5,314.5C 1063.2,309.968 1074.37,312.302 1084,321.5C 1089.49,332.891 1088.49,343.558 1081,353.5C 1077.63,356.269 1073.8,358.102 1069.5,359C 1059.23,361.35 1050.39,358.85 1043,351.5C 1036.62,340.096 1037.12,329.096 1044.5,318.5 Z"/></g>
<g><path style="opacity:1" fill="#04061b" d="M 1059.5,323.5 C 1064.78,322.56 1068.94,324.226 1072,328.5C 1072.67,332.833 1072.67,337.167 1072,341.5C 1069.79,348.11 1065.29,350.276 1058.5,348C 1056.19,346.363 1054.69,344.196 1054,341.5C 1053.33,337.5 1053.33,333.5 1054,329.5C 1055.36,326.977 1057.19,324.977 1059.5,323.5 Z"/></g>
<g><path style="opacity:1" fill="#c6a8f4" d="M 1128.5,291.5 C 1133.17,291.5 1137.83,291.5 1142.5,291.5C 1142.5,313.833 1142.5,336.167 1142.5,358.5C 1137.83,358.5 1133.17,358.5 1128.5,358.5C 1129.19,352.401 1127.85,351.901 1124.5,357C 1106.53,362.723 1096.86,356.056 1095.5,337C 1096.44,318.043 1106.11,310.376 1124.5,314C 1125.67,315.167 1126.83,316.333 1128,317.5C 1128.5,308.84 1128.67,300.173 1128.5,291.5 Z"/></g>
<g><path style="opacity:1" fill="#c3a5f0" d="M 982.5,291.5 C 987.5,291.5 992.5,291.5 997.5,291.5C 997.334,300.506 997.5,309.506 998,318.5C 1007.26,310.554 1016.6,310.554 1026,318.5C 1033.09,332.085 1031.59,344.585 1021.5,356C 1013.18,361.148 1005.35,360.648 998,354.5C 997.51,355.793 997.343,357.127 997.5,358.5C 992.5,358.5 987.5,358.5 982.5,358.5C 982.5,336.167 982.5,313.833 982.5,291.5 Z"/></g>
<g><path style="opacity:1" fill="#06081d" d="M 1002.5,323.5 C 1013.42,323.27 1017.58,328.603 1015,339.5C 1012.44,348.913 1007.11,350.913 999,345.5C 997.483,339.92 997.149,334.253 998,328.5C 999.707,326.963 1001.21,325.296 1002.5,323.5 Z"/></g>
<g><path style="opacity:1" fill="#05071c" d="M 1116.5,323.5 C 1121.64,322.426 1125.47,324.093 1128,328.5C 1128.84,333.921 1128.51,339.254 1127,344.5C 1120.24,350.631 1114.9,349.631 1111,341.5C 1109.01,334.128 1110.85,328.128 1116.5,323.5 Z"/></g>
<g><path style="opacity:1" fill="#000319" d="M 1199.5,181.5 C 1247.83,181.5 1296.17,181.5 1344.5,181.5C 1344.5,225.167 1344.5,268.833 1344.5,312.5C 1334.22,313.947 1327.38,319.614 1324,329.5C 1321.28,346.245 1328.11,356.245 1344.5,359.5C 1344.5,398.5 1344.5,437.5 1344.5,476.5C 1329.17,476.5 1313.83,476.5 1298.5,476.5C 1265.5,476.5 1232.5,476.5 1199.5,476.5C 1199.5,437.167 1199.5,397.833 1199.5,358.5C 1199.5,346.5 1199.5,334.5 1199.5,322.5C 1199.5,275.5 1199.5,228.5 1199.5,181.5 Z"/></g>
<g><path style="opacity:1" fill="#c2a4ef" d="M 1212.5,313.5 C 1217.5,313.5 1222.5,313.5 1227.5,313.5C 1227.5,328.5 1227.5,343.5 1227.5,358.5C 1222.5,358.5 1217.5,358.5 1212.5,358.5C 1212.5,343.5 1212.5,328.5 1212.5,313.5 Z"/></g>
<g><path style="opacity:1" fill="#c5a7f2" d="M 1268.5,295.5 C 1279.17,295.333 1289.84,295.5 1300.5,296C 1313.78,299.393 1317.95,307.56 1313,320.5C 1310.31,324.69 1306.81,328.024 1302.5,330.5C 1310.02,339.047 1316.69,348.213 1322.5,358C 1316.83,358.667 1311.17,358.667 1305.5,358C 1301.54,351.917 1297.71,345.751 1294,339.5C 1291.45,335.808 1287.95,334.142 1283.5,334.5C 1283.5,342.5 1283.5,350.5 1283.5,358.5C 1278.5,358.5 1273.5,358.5 1268.5,358.5C 1268.5,337.5 1268.5,316.5 1268.5,295.5 Z"/></g>
<g><path style="opacity:1" fill="#08091e" d="M 1283.5,306.5 C 1287.18,306.335 1290.85,306.501 1294.5,307C 1299.22,309.435 1300.72,313.269 1299,318.5C 1294.87,323.048 1289.7,324.715 1283.5,323.5C 1283.5,317.833 1283.5,312.167 1283.5,306.5 Z"/></g>
<g><path style="opacity:1" fill="#c0a3ed" d="M 1215.5,291.5 C 1220.45,290.628 1224.61,291.961 1228,295.5C 1228.5,303.653 1224.67,306.82 1216.5,305C 1210.2,301.009 1209.87,296.509 1215.5,291.5 Z"/></g>
<g><path style="opacity:1" fill="#000319" d="M 1422.5,326.5 C 1423.25,322.323 1424.59,318.323 1426.5,314.5C 1421.87,313.338 1417.2,313.172 1412.5,314C 1409.11,324.068 1405.94,334.235 1403,344.5C 1400,334.5 1397,324.5 1394,314.5C 1388.55,313.194 1383.05,313.194 1377.5,314.5C 1384.04,328.914 1390.04,343.581 1395.5,358.5C 1394.6,368.112 1389.6,371.446 1380.5,368.5C 1379.21,372.38 1379.21,376.214 1380.5,380C 1389.39,382.258 1396.89,380.092 1403,373.5C 1409.54,359.672 1415.38,345.672 1420.5,331.5C 1445.17,331.5 1469.83,331.5 1494.5,331.5C 1494.5,379.833 1494.5,428.167 1494.5,476.5C 1446.17,476.5 1397.83,476.5 1349.5,476.5C 1349.5,437.5 1349.5,398.5 1349.5,359.5C 1360.83,359.428 1368.33,354.095 1372,343.5C 1375.69,324.854 1368.19,314.52 1349.5,312.5C 1349.5,268.833 1349.5,225.167 1349.5,181.5C 1397.84,181.644 1446.17,181.311 1494.5,180.5C 1494.5,229.167 1494.5,277.833 1494.5,326.5C 1470.5,326.5 1446.5,326.5 1422.5,326.5 Z"/></g>
<g><path style="opacity:1" fill="#767783" d="M 512.5,333.5 C 504.167,333.5 495.833,333.5 487.5,333.5C 487.826,342.017 487.493,350.35 486.5,358.5C 486.5,349.833 486.5,341.167 486.5,332.5C 495.349,332.174 504.016,332.507 512.5,333.5 Z"/></g>
<g><path style="opacity:1" fill="#f1f1f2" d="M 569.5,347.5 C 574.179,347.334 578.845,347.501 583.5,348C 581.883,354.973 579.883,361.807 577.5,368.5C 573.555,369.491 569.555,369.824 565.5,369.5C 566.962,362.191 568.295,354.858 569.5,347.5 Z"/></g>
<g><path style="opacity:1" fill="#070a1f" d="M 744.5,87.5 C 745.855,94.1195 746.189,100.786 745.5,107.5C 746.833,107.5 748.167,107.5 749.5,107.5C 749.5,130.5 749.5,153.5 749.5,176.5C 797.833,176.5 846.167,176.5 894.5,176.5C 894.5,152.167 894.5,127.833 894.5,103.5C 895.434,104.568 895.768,105.901 895.5,107.5C 896.833,107.5 898.167,107.5 899.5,107.5C 899.5,130.5 899.5,153.5 899.5,176.5C 947.833,176.5 996.167,176.5 1044.5,176.5C 1045.33,154.67 1045.83,132.67 1046,110.5C 1047.01,111.337 1048.18,111.67 1049.5,111.5C 1049.5,133.167 1049.5,154.833 1049.5,176.5C 1097.83,176.5 1146.17,176.5 1194.5,176.5C 1195.5,164.678 1195.83,152.678 1195.5,140.5C 1196.96,140.433 1198.29,140.766 1199.5,141.5C 1199.5,153.167 1199.5,164.833 1199.5,176.5C 1229.5,176.5 1259.5,176.5 1289.5,176.5C 1290.75,178.136 1292.42,179.303 1294.5,180C 1262.66,180.168 1231,180.668 1199.5,181.5C 1199.5,228.5 1199.5,275.5 1199.5,322.5C 1197.99,319.472 1195.99,316.805 1193.5,314.5C 1194.5,270.336 1194.83,226.003 1194.5,181.5C 1146.17,181.5 1097.83,181.5 1049.5,181.5C 1049.5,193.833 1049.5,206.167 1049.5,218.5C 1048.17,222.833 1048.17,227.167 1049.5,231.5C 1049.17,259.338 1049.5,287.005 1050.5,314.5C 1048.8,316.192 1046.8,317.525 1044.5,318.5C 1044.5,289.5 1044.5,260.5 1044.5,231.5C 1045.49,230.001 1045.49,228.334 1044.5,226.5C 1044.5,211.5 1044.5,196.5 1044.5,181.5C 996.167,181.5 947.833,181.5 899.5,181.5C 899.17,197.342 899.504,213.009 900.5,228.5C 899.89,229.391 899.557,230.391 899.5,231.5C 899.5,258.833 899.5,286.167 899.5,313.5C 898.167,328.5 898.167,343.5 899.5,358.5C 899.5,379.167 899.5,399.833 899.5,420.5C 897.833,420.5 896.167,420.5 894.5,420.5C 894.5,390.833 894.5,361.167 894.5,331.5C 891.833,331.5 889.167,331.5 886.5,331.5C 886.827,340.682 886.493,349.682 885.5,358.5C 885.5,347.833 885.5,337.167 885.5,326.5C 888.5,326.5 891.5,326.5 894.5,326.5C 894.5,294.833 894.5,263.167 894.5,231.5C 895.8,229.777 896.467,227.61 896.5,225C 896.467,222.39 895.8,220.223 894.5,218.5C 894.5,206.167 894.5,193.833 894.5,181.5C 846.167,181.5 797.833,181.5 749.5,181.5C 749.5,225.833 749.5,270.167 749.5,314.5C 747.716,314.107 746.05,313.441 744.5,312.5C 744.5,268.833 744.5,225.167 744.5,181.5C 696.167,181.5 647.833,181.5 599.5,181.5C 599.5,229.833 599.5,278.167 599.5,326.5C 607.833,326.5 616.167,326.5 624.5,326.5C 624.5,328.167 624.5,329.833 624.5,331.5C 616.167,331.5 607.833,331.5 599.5,331.5C 599.5,379.833 599.5,428.167 599.5,476.5C 647.833,476.5 696.167,476.5 744.5,476.5C 744.5,471.167 744.5,465.833 744.5,460.5C 746.167,460.5 747.833,460.5 749.5,460.5C 749.5,465.833 749.5,471.167 749.5,476.5C 797.833,476.5 846.167,476.5 894.5,476.5C 894.5,471.167 894.5,465.833 894.5,460.5C 896.167,460.5 897.833,460.5 899.5,460.5C 899.5,465.833 899.5,471.167 899.5,476.5C 947.833,476.5 996.167,476.5 1044.5,476.5C 1044.5,471.5 1044.5,466.5 1044.5,461.5C 1046.17,461.5 1047.83,461.5 1049.5,461.5C 1049.5,466.5 1049.5,471.5 1049.5,476.5C 1097.83,476.5 1146.17,476.5 1194.5,476.5C 1194.5,437.167 1194.5,397.833 1194.5,358.5C 1196.17,358.5 1197.83,358.5 1199.5,358.5C 1199.5,397.833 1199.5,437.167 1199.5,476.5C 1232.5,476.5 1265.5,476.5 1298.5,476.5C 1296.73,477.892 1294.73,479.059 1292.5,480C 1261.33,480.168 1230.33,480.668 1199.5,481.5C 1199.5,493.5 1199.5,505.5 1199.5,517.5C 1198.29,518.234 1196.96,518.567 1195.5,518.5C 1195.5,505.833 1195.5,493.167 1195.5,480.5C 1146.66,480.168 1098,480.501 1049.5,481.5C 1049.5,497.167 1049.5,512.833 1049.5,528.5C 1047.83,528.5 1046.17,528.5 1044.5,528.5C 1044.5,512.833 1044.5,497.167 1044.5,481.5C 996.167,481.5 947.833,481.5 899.5,481.5C 899.5,497.167 899.5,512.833 899.5,528.5C 897.833,528.5 896.167,528.5 894.5,528.5C 894.5,512.833 894.5,497.167 894.5,481.5C 846.167,481.5 797.833,481.5 749.5,481.5C 749.5,498.5 749.5,515.5 749.5,532.5C 748.292,531.766 746.959,531.433 745.5,531.5C 745.5,514.5 745.5,497.5 745.5,480.5C 697.499,480.667 649.499,480.5 601.5,480C 599.833,479.167 598.167,478.333 596.5,477.5C 595.5,428.505 595.167,379.505 595.5,330.5C 582.656,330.171 569.989,330.505 557.5,331.5C 557.827,340.682 557.493,349.682 556.5,358.5C 556.5,343.5 556.5,328.5 556.5,313.5C 557.485,317.634 557.818,321.968 557.5,326.5C 569.833,326.5 582.167,326.5 594.5,326.5C 595.167,278.332 595.833,229.998 596.5,181.5C 599.568,180.309 602.235,178.642 604.5,176.5C 651.167,176.5 697.833,176.5 744.5,176.5C 744.5,146.833 744.5,117.167 744.5,87.5 Z"/></g>
<g><path style="opacity:1" fill="#ececed" d="M 1078.5,434.5 C 1081.62,433.521 1084.96,433.187 1088.5,433.5C 1089.84,439.191 1091.34,444.858 1093,450.5C 1094.97,445.272 1096.64,439.938 1098,434.5C 1101.12,433.213 1104.29,433.213 1107.5,434.5C 1104.35,442.783 1101.35,451.117 1098.5,459.5C 1094.89,460.489 1091.23,460.823 1087.5,460.5C 1084.49,451.793 1081.49,443.126 1078.5,434.5 Z"/></g>
<g><path style="opacity:1" fill="#ededee" d="M 1151.5,432.5 C 1153.83,432.5 1156.17,432.5 1158.5,432.5C 1158.5,435.167 1158.5,437.833 1158.5,440.5C 1155.43,438.862 1152.59,439.195 1150,441.5C 1148.63,447.742 1148.13,454.075 1148.5,460.5C 1145.5,460.5 1142.5,460.5 1139.5,460.5C 1139.5,451.5 1139.5,442.5 1139.5,433.5C 1143.03,432.989 1146.2,433.656 1149,435.5C 1150.04,434.627 1150.88,433.627 1151.5,432.5 Z"/></g>
<g><path style="opacity:1" fill="#eeeeef" d="M 1117.5,432.5 C 1130.67,430.671 1136.67,436.338 1135.5,449.5C 1129.83,449.5 1124.17,449.5 1118.5,449.5C 1118.45,452.292 1119.79,454.125 1122.5,455C 1125.95,455.473 1129.28,454.973 1132.5,453.5C 1133.77,455.695 1133.77,457.861 1132.5,460C 1113.15,464.647 1105.98,457.481 1111,438.5C 1113.06,436.266 1115.23,434.266 1117.5,432.5 Z"/></g>
<g><path style="opacity:1" fill="#0c0f1f" d="M 1120.5,438.5 C 1125.5,437.5 1127.5,439.5 1126.5,444.5C 1123.83,444.5 1121.17,444.5 1118.5,444.5C 1118.25,442.142 1118.92,440.142 1120.5,438.5 Z"/></g>
<g><path style="opacity:1" fill="#eeeeef" d="M 1049.5,461.5 C 1047.83,461.5 1046.17,461.5 1044.5,461.5C 1038.31,461.321 1034.14,458.321 1032,452.5C 1029.56,443.564 1032.39,437.064 1040.5,433C 1056.19,430.356 1063.02,436.856 1061,452.5C 1058.77,457.534 1054.93,460.534 1049.5,461.5 Z"/></g>
<g><path style="opacity:1" fill="#0f1223" d="M 1043.5,439.5 C 1050.82,438.992 1053.66,442.326 1052,449.5C 1050.92,454.115 1048.09,455.615 1043.5,454C 1039.53,449.098 1039.53,444.264 1043.5,439.5 Z"/></g>
<g><path style="opacity:1" fill="#ececee" d="M 951.5,432.5 C 954.518,432.335 957.518,432.502 960.5,433C 962,433.833 963.167,435 964,436.5C 967.743,432.741 972.243,431.574 977.5,433C 979.378,434.543 980.878,436.376 982,438.5C 982.5,445.826 982.666,453.159 982.5,460.5C 979.5,460.5 976.5,460.5 973.5,460.5C 973.666,454.158 973.5,447.825 973,441.5C 970.925,439.352 968.592,439.018 966,440.5C 965.5,447.158 965.334,453.825 965.5,460.5C 962.167,460.5 958.833,460.5 955.5,460.5C 955.666,453.825 955.5,447.158 955,440.5C 952.408,439.018 950.075,439.352 948,441.5C 947.5,447.825 947.334,454.158 947.5,460.5C 944.5,460.5 941.5,460.5 938.5,460.5C 938.5,451.5 938.5,442.5 938.5,433.5C 941.5,433.5 944.5,433.5 947.5,433.5C 947.351,434.552 947.517,435.552 948,436.5C 949.376,435.295 950.542,433.962 951.5,432.5 Z"/></g>
<g><path style="opacity:1" fill="#eeeeef" d="M 916.5,432.5 C 929.67,430.671 935.67,436.338 934.5,449.5C 928.833,449.5 923.167,449.5 917.5,449.5C 917.452,452.292 918.785,454.125 921.5,455C 924.951,455.473 928.285,454.973 931.5,453.5C 932.769,455.695 932.769,457.861 931.5,460C 912.147,464.647 904.98,457.481 910,438.5C 912.063,436.266 914.229,434.266 916.5,432.5 Z"/></g>
<g><path style="opacity:1" fill="#0c0f1f" d="M 919.5,438.5 C 924.5,437.5 926.5,439.5 925.5,444.5C 922.833,444.5 920.167,444.5 917.5,444.5C 917.253,442.142 917.919,440.142 919.5,438.5 Z"/></g>
<g><path style="opacity:1" fill="#ecedee" d="M 1010.5,421.5 C 1016.2,421.375 1021.87,421.708 1027.5,422.5C 1027.82,425.572 1027.48,428.572 1026.5,431.5C 1021.84,428.095 1017.01,427.761 1012,430.5C 1011.37,432.903 1012.2,434.737 1014.5,436C 1019.08,437.871 1023.25,440.371 1027,443.5C 1030.68,455.828 1026.02,461.828 1013,461.5C 1009.41,461.528 1005.91,461.028 1002.5,460C 1001.21,456.875 1001.21,453.709 1002.5,450.5C 1007.33,454.75 1012.5,455.417 1018,452.5C 1018.67,451.167 1018.67,449.833 1018,448.5C 1014.37,445.958 1010.54,443.791 1006.5,442C 998.976,433.513 1000.31,426.68 1010.5,421.5 Z"/></g>
<g><path style="opacity:1" fill="#eeeeef" d="M 1066.5,420.5 C 1069.5,420.5 1072.5,420.5 1075.5,420.5C 1075.5,433.833 1075.5,447.167 1075.5,460.5C 1072.5,460.5 1069.5,460.5 1066.5,460.5C 1066.5,447.167 1066.5,433.833 1066.5,420.5 Z"/></g>
<g><path style="opacity:1" fill="#e1e1e4" d="M 894.5,420.5 C 896.167,420.5 897.833,420.5 899.5,420.5C 900.833,420.5 902.167,420.5 903.5,420.5C 903.5,433.833 903.5,447.167 903.5,460.5C 902.167,460.5 900.833,460.5 899.5,460.5C 897.833,460.5 896.167,460.5 894.5,460.5C 893.167,447.167 893.167,433.833 894.5,420.5 Z"/></g>
<g><path style="opacity:1" fill="#14162b" d="M 1164.5,419.5 C 1166.83,419.5 1169.17,419.5 1171.5,419.5C 1171.5,437.5 1171.5,455.5 1171.5,473.5C 1169.17,473.5 1166.83,473.5 1164.5,473.5C 1164.5,455.5 1164.5,437.5 1164.5,419.5 Z"/></g>
<g><path style="opacity:1" fill="#000319" d="M 744.5,312.5 C 736.62,311.181 730.12,313.514 725,319.5C 721.999,314.434 717.499,312.101 711.5,312.5C 705.815,312.592 701.315,314.925 698,319.5C 697.505,317.527 697.338,315.527 697.5,313.5C 692.5,313.5 687.5,313.5 682.5,313.5C 682.5,328.5 682.5,343.5 682.5,358.5C 687.5,358.5 692.5,358.5 697.5,358.5C 697.334,348.494 697.5,338.494 698,328.5C 701.545,322.791 705.879,322.125 711,326.5C 711.5,337.161 711.667,347.828 711.5,358.5C 716.5,358.5 721.5,358.5 726.5,358.5C 726.334,348.494 726.5,338.494 727,328.5C 730.872,322.244 735.205,321.911 740,327.5C 740.5,337.828 740.666,348.161 740.5,358.5C 745.5,358.5 750.5,358.5 755.5,358.5C 755.667,347.162 755.5,335.828 755,324.5C 754.377,320.434 752.544,317.101 749.5,314.5C 749.5,270.167 749.5,225.833 749.5,181.5C 797.833,181.5 846.167,181.5 894.5,181.5C 894.5,193.833 894.5,206.167 894.5,218.5C 894.5,222.833 894.5,227.167 894.5,231.5C 894.5,263.167 894.5,294.833 894.5,326.5C 891.5,326.5 888.5,326.5 885.5,326.5C 884.085,319.251 879.752,314.751 872.5,313C 864.29,311.991 856.29,312.824 848.5,315.5C 848.177,319.226 848.511,322.893 849.5,326.5C 856.375,322.108 863.541,321.441 871,324.5C 871.494,326.134 871.66,327.801 871.5,329.5C 864.612,329.481 857.946,330.648 851.5,333C 844.333,338.173 842.5,345.007 846,353.5C 850.53,359.171 856.363,361.004 863.5,359C 866.242,357.93 868.742,356.43 871,354.5C 871.49,355.793 871.657,357.127 871.5,358.5C 876.167,358.5 880.833,358.5 885.5,358.5C 886.493,349.682 886.827,340.682 886.5,331.5C 889.167,331.5 891.833,331.5 894.5,331.5C 894.5,361.167 894.5,390.833 894.5,420.5C 893.167,433.833 893.167,447.167 894.5,460.5C 894.5,465.833 894.5,471.167 894.5,476.5C 846.167,476.5 797.833,476.5 749.5,476.5C 749.5,471.167 749.5,465.833 749.5,460.5C 751.167,460.5 752.833,460.5 754.5,460.5C 751.066,447.698 746.733,435.198 741.5,423C 737.577,422.207 733.744,422.374 730,423.5C 725.243,435.67 721.076,448.004 717.5,460.5C 720.833,460.5 724.167,460.5 727.5,460.5C 727.082,454.318 729.915,451.651 736,452.5C 742.517,451.182 745.35,453.849 744.5,460.5C 744.5,465.833 744.5,471.167 744.5,476.5C 696.167,476.5 647.833,476.5 599.5,476.5C 599.5,428.167 599.5,379.833 599.5,331.5C 607.833,331.5 616.167,331.5 624.5,331.5C 624.5,340.5 624.5,349.5 624.5,358.5C 629.5,358.5 634.5,358.5 639.5,358.5C 639.5,337.5 639.5,316.5 639.5,295.5C 634.5,295.5 629.5,295.5 624.5,295.5C 624.5,305.833 624.5,316.167 624.5,326.5C 616.167,326.5 607.833,326.5 599.5,326.5C 599.5,278.167 599.5,229.833 599.5,181.5C 647.833,181.5 696.167,181.5 744.5,181.5C 744.5,225.167 744.5,268.833 744.5,312.5 Z"/></g>
<g><path style="opacity:1" fill="#878993" d="M 789.5,446.5 C 787.735,447.461 785.735,447.795 783.5,447.5C 783.818,452.032 783.485,456.366 782.5,460.5C 782.5,455.833 782.5,451.167 782.5,446.5C 784.833,446.5 787.167,446.5 789.5,446.5 Z"/></g>
<g><path style="opacity:1" fill="#f1f1f2" d="M 835.5,432.5 C 850.707,430.872 857.207,437.538 855,452.5C 853.402,457.099 850.235,459.932 845.5,461C 830.36,462.52 824.193,455.686 827,440.5C 829.074,436.923 831.907,434.256 835.5,432.5 Z"/></g>
<g><path style="opacity:1" fill="#0c101f" d="M 837.5,439.5 C 840.685,439.02 843.519,439.686 846,441.5C 846.978,445.9 846.478,450.067 844.5,454C 842.167,454.667 839.833,454.667 837.5,454C 834.855,449.103 834.855,444.269 837.5,439.5 Z"/></g>
<g><path style="opacity:1" fill="#efeff0" d="M 818.5,432.5 C 820.5,432.5 822.5,432.5 824.5,432.5C 824.813,435.247 824.48,437.914 823.5,440.5C 820.42,438.895 817.92,439.562 816,442.5C 815.501,448.491 815.334,454.491 815.5,460.5C 812.5,460.5 809.5,460.5 806.5,460.5C 806.5,451.5 806.5,442.5 806.5,433.5C 809.777,433.216 812.943,433.549 816,434.5C 816.995,433.934 817.828,433.267 818.5,432.5 Z"/></g>
<g><path style="opacity:1" fill="#eeeeef" d="M 789.5,446.5 C 787.167,446.5 784.833,446.5 782.5,446.5C 782.5,451.167 782.5,455.833 782.5,460.5C 779.5,460.5 776.5,460.5 773.5,460.5C 773.5,447.833 773.5,435.167 773.5,422.5C 780.508,422.334 787.508,422.5 794.5,423C 802.725,427.193 804.558,433.359 800,441.5C 797.383,444.985 793.883,446.652 789.5,446.5 Z"/></g>
<g><path style="opacity:1" fill="#070a1c" d="M 783.5,429.5 C 792.058,428.528 794.391,431.694 790.5,439C 788.26,439.977 785.927,440.477 783.5,440.5C 783.5,436.833 783.5,433.167 783.5,429.5 Z"/></g>
<g><path style="opacity:1" fill="#eeeeef" d="M 749.5,460.5 C 747.833,460.5 746.167,460.5 744.5,460.5C 745.35,453.849 742.517,451.182 736,452.5C 729.915,451.651 727.082,454.318 727.5,460.5C 724.167,460.5 720.833,460.5 717.5,460.5C 721.076,448.004 725.243,435.67 730,423.5C 733.744,422.374 737.577,422.207 741.5,423C 746.733,435.198 751.066,447.698 754.5,460.5C 752.833,460.5 751.167,460.5 749.5,460.5 Z"/></g>
<g><path style="opacity:1" fill="#161928" d="M 735.5,431.5 C 736.939,435.801 738.606,440.135 740.5,444.5C 737.572,445.484 734.572,445.817 731.5,445.5C 732.833,440.834 734.166,436.167 735.5,431.5 Z"/></g>
<g><path style="opacity:1" fill="#edeeef" d="M 860.5,420.5 C 863.5,420.5 866.5,420.5 869.5,420.5C 869.334,425.511 869.501,430.511 870,435.5C 874.478,432.151 879.312,431.651 884.5,434C 890.597,441.419 891.097,449.252 886,457.5C 881.178,461.962 875.845,462.629 870,459.5C 866.943,460.451 863.777,460.784 860.5,460.5C 860.5,447.167 860.5,433.833 860.5,420.5 Z"/></g>
<g><path style="opacity:1" fill="#060a1c" d="M 872.5,439.5 C 875.044,439.104 877.211,439.771 879,441.5C 879.978,445.9 879.478,450.067 877.5,454C 874.166,455.212 871.666,454.379 870,451.5C 869.333,448.5 869.333,445.5 870,442.5C 870.698,441.309 871.531,440.309 872.5,439.5 Z"/></g>
<g><path style="opacity:1" fill="#c4a6f2" d="M 885.5,326.5 C 885.5,337.167 885.5,347.833 885.5,358.5C 880.833,358.5 876.167,358.5 871.5,358.5C 871.657,357.127 871.49,355.793 871,354.5C 868.742,356.43 866.242,357.93 863.5,359C 856.363,361.004 850.53,359.171 846,353.5C 842.5,345.007 844.333,338.173 851.5,333C 857.946,330.648 864.612,329.481 871.5,329.5C 871.66,327.801 871.494,326.134 871,324.5C 863.541,321.441 856.375,322.108 849.5,326.5C 848.511,322.893 848.177,319.226 848.5,315.5C 856.29,312.824 864.29,311.991 872.5,313C 879.752,314.751 884.085,319.251 885.5,326.5 Z"/></g>
<g><path style="opacity:1" fill="#080a1e" d="M 867.5,337.5 C 868.833,337.5 870.167,337.5 871.5,337.5C 872.779,344.304 870.112,348.304 863.5,349.5C 858.699,348.866 856.865,346.2 858,341.5C 860.888,339.288 864.055,337.954 867.5,337.5 Z"/></g>
<g><path style="opacity:1" fill="#f5f6f6" d="M 744.5,312.5 C 746.05,313.441 747.716,314.107 749.5,314.5C 752.544,317.101 754.377,320.434 755,324.5C 755.5,335.828 755.667,347.162 755.5,358.5C 750.5,358.5 745.5,358.5 740.5,358.5C 740.666,348.161 740.5,337.828 740,327.5C 735.205,321.911 730.872,322.244 727,328.5C 726.5,338.494 726.334,348.494 726.5,358.5C 721.5,358.5 716.5,358.5 711.5,358.5C 711.667,347.828 711.5,337.161 711,326.5C 705.879,322.125 701.545,322.791 698,328.5C 697.5,338.494 697.334,348.494 697.5,358.5C 692.5,358.5 687.5,358.5 682.5,358.5C 682.5,343.5 682.5,328.5 682.5,313.5C 687.5,313.5 692.5,313.5 697.5,313.5C 697.338,315.527 697.505,317.527 698,319.5C 701.315,314.925 705.815,312.592 711.5,312.5C 717.499,312.101 721.999,314.434 725,319.5C 730.12,313.514 736.62,311.181 744.5,312.5 Z"/></g>
<g><path style="opacity:1" fill="#fafafa" d="M 656.5,295.5 C 660.167,295.5 663.833,295.5 667.5,295.5C 667.5,301.833 667.5,308.167 667.5,314.5C 663.833,314.5 660.167,314.5 656.5,314.5C 656.5,308.167 656.5,301.833 656.5,295.5 Z"/></g>
<g><path style="opacity:1" fill="#f6f6f7" d="M 624.5,331.5 C 624.5,329.833 624.5,328.167 624.5,326.5C 624.5,316.167 624.5,305.833 624.5,295.5C 629.5,295.5 634.5,295.5 639.5,295.5C 639.5,316.5 639.5,337.5 639.5,358.5C 634.5,358.5 629.5,358.5 624.5,358.5C 624.5,349.5 624.5,340.5 624.5,331.5 Z"/></g>
<g><path style="opacity:1" fill="#c5a7f3" d="M 809.5,294.5 C 817.945,294.098 826.279,294.765 834.5,296.5C 834.826,300.884 834.492,305.217 833.5,309.5C 825.986,305.124 818.319,304.624 810.5,308C 807.689,311.294 808.022,314.294 811.5,317C 817.469,319.984 823.469,322.984 829.5,326C 837.122,333.238 838.622,341.738 834,351.5C 830.083,355.709 825.25,358.209 819.5,359C 813.5,359.667 807.5,359.667 801.5,359C 799,358.625 796.667,357.792 794.5,356.5C 793.167,351.833 793.167,347.167 794.5,342.5C 802.28,348.16 810.613,349.327 819.5,346C 822.448,342.073 821.782,338.739 817.5,336C 811.221,333.527 805.221,330.527 799.5,327C 796.894,325.062 795.061,322.562 794,319.5C 791.574,306.336 796.741,298.003 809.5,294.5 Z"/></g>
<g><path style="opacity:1" fill="#b8bfd3" d="M 852.5,218.5 C 853.675,218.281 854.675,218.614 855.5,219.5C 857.488,223.451 858.488,227.451 858.5,231.5C 856.951,227.947 854.451,226.947 851,228.5C 850.517,229.448 850.351,230.448 850.5,231.5C 849.325,231.719 848.325,231.386 847.5,230.5C 849.472,226.588 851.139,222.588 852.5,218.5 Z"/></g>
<g><path style="opacity:1" fill="#b3bace" d="M 792.5,218.5 C 793.376,218.369 794.043,218.702 794.5,219.5C 795.432,221.795 796.265,224.129 797,226.5C 798.381,224.365 799.381,222.032 800,219.5C 801.342,218.098 802.176,218.431 802.5,220.5C 801.364,223.907 800.031,227.241 798.5,230.5C 797.675,231.386 796.675,231.719 795.5,231.5C 794.699,227.103 793.699,222.769 792.5,218.5 Z"/></g>
<g><path style="opacity:1" fill="#b7bfd2" d="M 994.5,218.5 C 995.5,218.5 996.5,218.5 997.5,218.5C 998.041,223.116 999.374,223.449 1001.5,219.5C 1002.36,218.417 1003.36,218.251 1004.5,219C 1001.86,222.778 1000.19,226.944 999.5,231.5C 998.317,226.983 996.65,222.649 994.5,218.5 Z"/></g>
<g><path style="opacity:1" fill="#bec6d9" d="M 947.5,218.5 C 956.95,218.946 958.95,223.112 953.5,231C 946.205,232.618 943.038,229.785 944,222.5C 944.69,220.65 945.856,219.316 947.5,218.5 Z"/></g>
<g><path style="opacity:1" fill="#b8bfd2" d="M 1113.5,218.5 C 1115.6,218.201 1117.6,218.534 1119.5,219.5C 1118,220.052 1116.33,220.052 1114.5,219.5C 1114.34,220.873 1114.51,222.207 1115,223.5C 1117.39,224.429 1119.22,225.929 1120.5,228C 1120.24,229.261 1119.57,230.261 1118.5,231C 1116.1,231.814 1113.76,231.647 1111.5,230.5C 1113.02,230.12 1114.69,229.954 1116.5,230C 1117.02,229.439 1117.36,228.772 1117.5,228C 1115.79,226.389 1113.96,224.889 1112,223.5C 1111.39,221.505 1111.89,219.838 1113.5,218.5 Z"/></g>
<g><path style="opacity:1" fill="#b0b7cb" d="M 1083.5,218.5 C 1086.64,220.336 1089.14,223.003 1091,226.5C 1091.5,223.854 1091.66,221.187 1091.5,218.5C 1092.5,218.5 1093.5,218.5 1094.5,218.5C 1094.5,222.833 1094.5,227.167 1094.5,231.5C 1093.45,231.649 1092.45,231.483 1091.5,231C 1089.67,228.5 1087.83,226 1086,223.5C 1085.82,226.226 1085.32,228.893 1084.5,231.5C 1083.51,227.217 1083.17,222.884 1083.5,218.5 Z"/></g>
<g><path style="opacity:1" fill="#b0b7cb" d="M 1061.5,218.5 C 1064.64,220.336 1067.14,223.003 1069,226.5C 1069.5,223.854 1069.66,221.187 1069.5,218.5C 1070.5,218.5 1071.5,218.5 1072.5,218.5C 1072.5,222.833 1072.5,227.167 1072.5,231.5C 1071.45,231.649 1070.45,231.483 1069.5,231C 1067.67,228.5 1065.83,226 1064,223.5C 1063.82,226.226 1063.32,228.893 1062.5,231.5C 1061.51,227.217 1061.17,222.884 1061.5,218.5 Z"/></g>
<g><path style="opacity:1" fill="#afb6c9" d="M 977.5,218.5 C 978.822,218.33 979.989,218.663 981,219.5C 981.885,222 983.052,224.333 984.5,226.5C 985.948,224.333 987.115,222 988,219.5C 989.011,218.663 990.178,218.33 991.5,218.5C 991.5,222.833 991.5,227.167 991.5,231.5C 990.5,231.5 989.5,231.5 988.5,231.5C 988.662,229.473 988.495,227.473 988,225.5C 986.345,232.849 984.012,233.182 981,226.5C 980.506,228.134 980.34,229.801 980.5,231.5C 979.5,231.5 978.5,231.5 977.5,231.5C 977.5,227.167 977.5,222.833 977.5,218.5 Z"/></g>
<g><path style="opacity:1" fill="#c2cadd" d="M 1101.5,218.5 C 1103.92,218.192 1106.26,218.526 1108.5,219.5C 1106.66,219.755 1104.66,219.922 1102.5,220C 1098.97,222.838 1098.63,226.005 1101.5,229.5C 1103.07,230.309 1104.74,230.643 1106.5,230.5C 1106.5,228.833 1106.5,227.167 1106.5,225.5C 1105.45,225.649 1104.45,225.483 1103.5,225C 1105.13,224.506 1106.8,224.34 1108.5,224.5C 1109.58,231.065 1106.91,233.232 1100.5,231C 1096.29,226.361 1096.62,222.195 1101.5,218.5 Z"/></g>
<g><path style="opacity:1" fill="#161b2b" d="M 853.5,221.5 C 854.234,222.878 854.901,224.378 855.5,226C 854.552,226.483 853.552,226.649 852.5,226.5C 852.366,224.708 852.699,223.042 853.5,221.5 Z"/></g>
<g><path style="opacity:1" fill="#b3bacd" d="M 1044.5,226.5 C 1045.49,228.334 1045.49,230.001 1044.5,231.5C 1043.24,229.656 1041.58,228.323 1039.5,227.5C 1037.79,228.581 1036.29,229.915 1035,231.5C 1034.5,231.167 1034,230.833 1033.5,230.5C 1035.41,226.677 1036.75,222.677 1037.5,218.5C 1038.98,218.238 1040.31,218.571 1041.5,219.5C 1042.33,222.016 1043.33,224.35 1044.5,226.5 Z"/></g>
<g><path style="opacity:1" fill="#1e2334" d="M 1038.5,222.5 C 1040.12,222.787 1041.12,223.787 1041.5,225.5C 1040.28,226.614 1038.94,226.781 1037.5,226C 1038.34,224.989 1038.67,223.822 1038.5,222.5 Z"/></g>
<g><path style="opacity:1" fill="#b1b8cb" d="M 924.5,219.5 C 925.251,218.427 926.251,218.26 927.5,219C 928.717,220.648 929.55,222.481 930,224.5C 930.833,222.833 931.667,221.167 932.5,219.5C 933.365,218.417 934.365,218.251 935.5,219C 932.117,222.482 930.784,226.649 931.5,231.5C 930.5,231.5 929.5,231.5 928.5,231.5C 929.259,226.687 927.925,222.687 924.5,219.5 Z"/></g>
<g><path style="opacity:1" fill="#b9c0d4" d="M 899.5,231.5 C 899.557,230.391 899.89,229.391 900.5,228.5C 901.5,225.167 902.5,221.833 903.5,218.5C 904.833,218.5 906.167,218.5 907.5,218.5C 908.398,222.798 909.731,226.965 911.5,231C 910.552,231.483 909.552,231.649 908.5,231.5C 908.241,227.932 906.241,226.599 902.5,227.5C 902.912,229.973 901.912,231.306 899.5,231.5 Z"/></g>
<g><path style="opacity:1" fill="#111525" d="M 904.5,222.5 C 906.104,223.287 906.771,224.62 906.5,226.5C 905.325,226.719 904.325,226.386 903.5,225.5C 904.127,224.583 904.461,223.583 904.5,222.5 Z"/></g>
<g><path style="opacity:1" fill="#b9c0d4" d="M 775.5,218.5 C 776.833,218.5 778.167,218.5 779.5,218.5C 780.398,222.798 781.731,226.965 783.5,231C 782.552,231.483 781.552,231.649 780.5,231.5C 780.241,227.932 778.241,226.599 774.5,227.5C 774.883,230.462 773.883,231.462 771.5,230.5C 772.848,226.478 774.181,222.478 775.5,218.5 Z"/></g>
<g><path style="opacity:1" fill="#111525" d="M 776.5,222.5 C 778.104,223.287 778.771,224.62 778.5,226.5C 777.325,226.719 776.325,226.386 775.5,225.5C 776.127,224.583 776.461,223.583 776.5,222.5 Z"/></g>
<g><path style="opacity:1" fill="#c4cbde" d="M 1049.5,218.5 C 1056.24,217.371 1057.9,219.538 1054.5,225C 1056.08,226.828 1057.41,228.828 1058.5,231C 1057.36,231.749 1056.36,231.583 1055.5,230.5C 1052.16,223.567 1050.16,223.9 1049.5,231.5C 1048.17,227.167 1048.17,222.833 1049.5,218.5 Z"/></g>
<g><path style="opacity:1" fill="#141929" d="M 1050.5,219.5 C 1054.16,219.35 1055.16,220.85 1053.5,224C 1052.55,224.483 1051.55,224.649 1050.5,224.5C 1050.5,222.833 1050.5,221.167 1050.5,219.5 Z"/></g>
<g><path style="opacity:1" fill="#0c0f20" d="M 948.5,219.5 C 953.891,220.302 955.558,223.302 953.5,228.5C 949.148,231.654 946.815,230.487 946.5,225C 946.395,222.822 947.061,220.988 948.5,219.5 Z"/></g>
<g><path style="opacity:1" fill="#b9c0d4" d="M 879.5,218.5 C 889.515,217.132 892.515,220.965 888.5,230C 885.649,231.289 882.649,231.789 879.5,231.5C 879.5,227.167 879.5,222.833 879.5,218.5 Z"/></g>
<g><path style="opacity:1" fill="#0b0f20" d="M 882.5,219.5 C 888.023,219.562 889.856,222.229 888,227.5C 886.736,229.607 884.903,230.607 882.5,230.5C 882.5,226.833 882.5,223.167 882.5,219.5 Z"/></g>
<g><path style="opacity:1" fill="#cbd2e5" d="M 822.5,219.5 C 828.565,218.166 830.565,218.166 828.5,219.5C 827.833,235.5 827.167,235.5 826.5,219.5C 825.167,219.5 823.833,219.5 822.5,219.5 Z"/></g>
<g><path style="opacity:1" fill="#c3cbde" d="M 812.5,218.5 C 815.119,218.232 817.619,218.565 820,219.5C 820.863,221.749 820.363,223.582 818.5,225C 820.081,226.828 821.415,228.828 822.5,231C 821.365,231.749 820.365,231.583 819.5,230.5C 816.323,223.581 814.323,223.914 813.5,231.5C 812.508,227.217 812.174,222.884 812.5,218.5 Z"/></g>
<g><path style="opacity:1" fill="#141929" d="M 814.5,219.5 C 818.161,219.35 819.161,220.85 817.5,224C 816.552,224.483 815.552,224.649 814.5,224.5C 814.5,222.833 814.5,221.167 814.5,219.5 Z"/></g>
<g><path style="opacity:1" fill="#c2cadd" d="M 1076.5,218.5 C 1077.8,220.223 1078.47,222.39 1078.5,225C 1078.17,227.167 1077.83,229.333 1077.5,231.5C 1076.51,227.217 1076.17,222.884 1076.5,218.5 Z"/></g>
<g><path style="opacity:1" fill="#cfd6ea" d="M 1024.5,218.5 C 1026.86,218.337 1029.19,218.503 1031.5,219C 1029.87,219.494 1028.2,219.66 1026.5,219.5C 1026.5,221.167 1026.5,222.833 1026.5,224.5C 1033.17,224.833 1033.17,225.167 1026.5,225.5C 1026.5,227.167 1026.5,228.833 1026.5,230.5C 1028.2,230.34 1029.87,230.506 1031.5,231C 1029.19,231.497 1026.86,231.663 1024.5,231.5C 1024.5,227.167 1024.5,222.833 1024.5,218.5 Z"/></g>
<g><path style="opacity:1" fill="#cbd3e6" d="M 1014.5,218.5 C 1016.42,222.029 1017.09,226.029 1016.5,230.5C 1018.2,230.34 1019.87,230.506 1021.5,231C 1019.19,231.497 1016.86,231.663 1014.5,231.5C 1014.5,227.167 1014.5,222.833 1014.5,218.5 Z"/></g>
<g><path style="opacity:1" fill="#cbd2e6" d="M 960.5,218.5 C 962.857,218.337 965.19,218.503 967.5,219C 965.866,219.494 964.199,219.66 962.5,219.5C 962.5,221.167 962.5,222.833 962.5,224.5C 969.167,224.833 969.167,225.167 962.5,225.5C 962.799,227.604 962.466,229.604 961.5,231.5C 960.508,227.217 960.174,222.884 960.5,218.5 Z"/></g>
<g><path style="opacity:1" fill="#c7cee2" d="M 914.5,218.5 C 916.92,218.292 919.253,218.626 921.5,219.5C 922.78,221.724 922.447,223.724 920.5,225.5C 921.248,227.332 922.248,228.999 923.5,230.5C 923.167,230.833 922.833,231.167 922.5,231.5C 920.844,229.54 919.177,227.54 917.5,225.5C 916.833,227.5 916.167,229.5 915.5,231.5C 914.508,227.217 914.174,222.884 914.5,218.5 Z"/></g>
<g><path style="opacity:1" fill="#101424" d="M 916.5,219.5 C 920.161,219.35 921.161,220.85 919.5,224C 918.552,224.483 917.552,224.649 916.5,224.5C 916.5,222.833 916.5,221.167 916.5,219.5 Z"/></g>
<g><path style="opacity:1" fill="#b9c0d3" d="M 894.5,218.5 C 895.8,220.223 896.467,222.39 896.5,225C 896.467,227.61 895.8,229.777 894.5,231.5C 894.5,227.167 894.5,222.833 894.5,218.5 Z"/></g>
<g><path style="opacity:1" fill="#b2b9cd" d="M 862.5,218.5 C 863.5,218.5 864.5,218.5 865.5,218.5C 865.5,222.5 865.5,226.5 865.5,230.5C 867.199,230.34 868.866,230.506 870.5,231C 867.854,231.497 865.187,231.664 862.5,231.5C 862.5,227.167 862.5,222.833 862.5,218.5 Z"/></g>
<g><path style="opacity:1" fill="#bdc5d8" d="M 835.5,218.5 C 837.25,221.355 838.083,224.689 838,228.5C 839.11,230.037 840.61,230.703 842.5,230.5C 842.948,226.476 843.614,222.476 844.5,218.5C 845.659,222.122 845.825,225.789 845,229.5C 842,232.167 839,232.167 836,229.5C 835.501,225.848 835.335,222.182 835.5,218.5 Z"/></g>
<g><path style="opacity:1" fill="#b7bfd2" d="M 806.5,218.5 C 807.8,220.223 808.467,222.39 808.5,225C 808.167,227.167 807.833,229.333 807.5,231.5C 806.508,227.217 806.174,222.884 806.5,218.5 Z"/></g>
<g><path style="opacity:1" fill="#000319" d="M 299.5,480.5 C 347.844,480.216 396.178,480.549 444.5,481.5C 444.842,529.833 445.176,578.167 445.5,626.5C 396.833,626.5 348.167,626.5 299.5,626.5C 299.5,577.833 299.5,529.167 299.5,480.5 Z"/></g>
<g><path style="opacity:1" fill="#000319" d="M 1459.5,480.5 C 1471.17,480.5 1482.83,480.5 1494.5,480.5C 1495.18,529.164 1495.52,577.83 1495.5,626.5C 1446.83,626.5 1398.17,626.5 1349.5,626.5C 1349.5,578.167 1349.5,529.833 1349.5,481.5C 1386.34,481.832 1423,481.498 1459.5,480.5 Z"/></g>
<g><path style="opacity:1" fill="#000319" d="M 449.5,481.5 C 497.833,481.5 546.167,481.5 594.5,481.5C 594.244,529.841 594.577,578.175 595.5,626.5C 546.833,626.5 498.167,626.5 449.5,626.5C 449.5,578.167 449.5,529.833 449.5,481.5 Z"/></g>
<g><path style="opacity:1" fill="#000219" d="M 599.5,481.5 C 647.833,481.5 696.167,481.5 744.5,481.5C 744.5,529.833 744.5,578.167 744.5,626.5C 696.167,626.5 647.833,626.5 599.5,626.5C 599.5,578.167 599.5,529.833 599.5,481.5 Z"/></g>
<g><path style="opacity:1" fill="#000319" d="M 894.5,528.5 C 854.832,528.333 815.165,528.5 775.5,529C 771.763,530.281 769.263,532.781 768,536.5C 767.333,555.167 767.333,573.833 768,592.5C 769.263,596.219 771.763,598.719 775.5,600C 815.165,600.5 854.832,600.667 894.5,600.5C 894.5,609.167 894.5,617.833 894.5,626.5C 846.167,626.5 797.833,626.5 749.5,626.5C 749.5,595.167 749.5,563.833 749.5,532.5C 749.5,515.5 749.5,498.5 749.5,481.5C 797.833,481.5 846.167,481.5 894.5,481.5C 894.5,497.167 894.5,512.833 894.5,528.5 Z"/></g>
<g><path style="opacity:1" fill="#000219" d="M 1044.5,528.5 C 1005.5,528.5 966.5,528.5 927.5,528.5C 918.167,528.5 908.833,528.5 899.5,528.5C 899.5,512.833 899.5,497.167 899.5,481.5C 947.833,481.5 996.167,481.5 1044.5,481.5C 1044.5,497.167 1044.5,512.833 1044.5,528.5 Z"/></g>
<g><path style="opacity:1" fill="#000319" d="M 1049.5,481.5 C 1097.83,481.5 1146.17,481.5 1194.5,481.5C 1194.5,529.833 1194.5,578.167 1194.5,626.5C 1146.17,626.5 1097.83,626.5 1049.5,626.5C 1049.5,617.833 1049.5,609.167 1049.5,600.5C 1073.57,600.97 1097.57,600.47 1121.5,599C 1124.19,597.125 1126.02,594.625 1127,591.5C 1127.5,575.17 1127.67,558.837 1127.5,542.5C 1127.96,536.134 1125.3,531.634 1119.5,529C 1096.17,528.5 1072.84,528.333 1049.5,528.5C 1049.5,512.833 1049.5,497.167 1049.5,481.5 Z"/></g>
<g><path style="opacity:1" fill="#000319" d="M 1199.5,481.5 C 1247.83,481.5 1296.17,481.5 1344.5,481.5C 1344.34,529.838 1344.67,578.171 1345.5,626.5C 1296.83,626.5 1248.17,626.5 1199.5,626.5C 1199.5,590.167 1199.5,553.833 1199.5,517.5C 1199.5,505.5 1199.5,493.5 1199.5,481.5 Z"/></g>
<g><path style="opacity:1" fill="#ab9ce4" d="M 927.5,529.5 C 927.5,529.167 927.5,528.833 927.5,528.5C 966.5,528.5 1005.5,528.5 1044.5,528.5C 1046.17,528.5 1047.83,528.5 1049.5,528.5C 1072.84,528.333 1096.17,528.5 1119.5,529C 1125.3,531.634 1127.96,536.134 1127.5,542.5C 1126.83,542.167 1126.17,541.833 1125.5,541.5C 1124.85,535.35 1121.52,531.517 1115.5,530C 1052.83,529.5 990.168,529.333 927.5,529.5 Z"/></g>
<g><path style="opacity:1" fill="#030617" d="M 927.5,529.5 C 990.168,529.333 1052.83,529.5 1115.5,530C 1121.52,531.517 1124.85,535.35 1125.5,541.5C 1125.67,557.837 1125.5,574.17 1125,590.5C 1123.17,593.667 1120.67,596.167 1117.5,598C 1058.17,598.5 998.834,598.667 939.5,598.5C 885.166,598.667 830.832,598.5 776.5,598C 772.471,595.978 769.971,592.812 769,588.5C 768.333,571.833 768.333,555.167 769,538.5C 770.031,535.461 771.865,532.961 774.5,531C 825.441,529.514 876.441,529.014 927.5,529.5 Z"/></g>
<g><path style="opacity:1" fill="#f3f3f4" d="M 1065.5,553.5 C 1067.63,553.147 1068.97,553.98 1069.5,556C 1066.78,562.616 1063.45,568.783 1059.5,574.5C 1058.91,574.291 1058.41,573.957 1058,573.5C 1057.5,570.854 1057.34,568.187 1057.5,565.5C 1054.81,565.664 1052.15,565.497 1049.5,565C 1048.55,564.282 1048.38,563.449 1049,562.5C 1054.42,559.207 1059.92,556.207 1065.5,553.5 Z"/></g>
<g><path style="opacity:1" fill="#f4eede" d="M 881.5,557.5 C 882.5,557.5 883.5,557.5 884.5,557.5C 884.5,562.833 884.5,568.167 884.5,573.5C 883.5,573.5 882.5,573.5 881.5,573.5C 881.5,568.167 881.5,562.833 881.5,557.5 Z"/></g>
<g><path style="opacity:1" fill="#dfe6e7" d="M 825.5,558.5 C 837.301,556.781 840.967,561.281 836.5,572C 832.974,573.337 829.308,573.837 825.5,573.5C 825.5,568.5 825.5,563.5 825.5,558.5 Z"/></g>
<g><path style="opacity:1" fill="#ebeae5" d="M 963.5,558.5 C 966.187,558.336 968.854,558.503 971.5,559C 974.07,561.615 974.07,564.282 971.5,567C 972.833,569 974.167,571 975.5,573C 974.056,573.781 972.723,573.614 971.5,572.5C 968.116,565.623 966.449,565.956 966.5,573.5C 965.5,573.5 964.5,573.5 963.5,573.5C 963.5,568.5 963.5,563.5 963.5,558.5 Z"/></g>
<g><path style="opacity:1" fill="#241422" d="M 828.5,560.5 C 835.263,560.574 837.263,563.741 834.5,570C 832.564,570.813 830.564,571.313 828.5,571.5C 828.5,567.833 828.5,564.167 828.5,560.5 Z"/></g>
<g><path style="opacity:1" fill="#0b0d25" d="M 966.5,560.5 C 970.161,560.35 971.161,561.85 969.5,565C 968.552,565.483 967.552,565.649 966.5,565.5C 966.5,563.833 966.5,562.167 966.5,560.5 Z"/></g>
<g><path style="opacity:1" fill="#eee8df" d="M 842.5,562.5 C 849.163,561.333 851.997,563.999 851,570.5C 847.952,574.01 844.619,574.343 841,571.5C 840.068,568.177 840.568,565.177 842.5,562.5 Z"/></g>
<g><path style="opacity:1" fill="#f2e1c6" d="M 869.5,562.5 C 878.339,561.009 881.672,564.675 879.5,573.5C 878.5,573.5 877.5,573.5 876.5,573.5C 876.664,570.813 876.497,568.146 876,565.5C 875,564.167 874,564.167 873,565.5C 872.503,568.146 872.336,570.813 872.5,573.5C 871.5,573.5 870.5,573.5 869.5,573.5C 869.5,569.833 869.5,566.167 869.5,562.5 Z"/></g>
<g><path style="opacity:1" fill="#eee8df" d="M 888.5,562.5 C 895.163,561.333 897.997,563.999 897,570.5C 893.952,574.01 890.619,574.343 887,571.5C 886.068,568.177 886.568,565.177 888.5,562.5 Z"/></g>
<g><path style="opacity:1" fill="#e6e2d9" d="M 928.5,562.5 C 933.599,562.939 938.599,563.106 943.5,563C 944.456,566.394 944.789,569.894 944.5,573.5C 943.5,573.5 942.5,573.5 941.5,573.5C 941.817,570.428 941.484,567.428 940.5,564.5C 939.914,564.709 939.414,565.043 939,565.5C 938.503,568.146 938.336,570.813 938.5,573.5C 937.167,573.5 935.833,573.5 934.5,573.5C 934.817,570.428 934.484,567.428 933.5,564.5C 932.914,564.709 932.414,565.043 932,565.5C 931.503,568.146 931.336,570.813 931.5,573.5C 930.5,573.5 929.5,573.5 928.5,573.5C 928.5,569.833 928.5,566.167 928.5,562.5 Z"/></g>
<g><path style="opacity:1" fill="#e6e2d9" d="M 1008.5,562.5 C 1013.6,562.939 1018.6,563.106 1023.5,563C 1024.46,566.394 1024.79,569.894 1024.5,573.5C 1023.5,573.5 1022.5,573.5 1021.5,573.5C 1021.82,570.428 1021.48,567.428 1020.5,564.5C 1019.91,564.709 1019.41,565.043 1019,565.5C 1018.5,568.146 1018.34,570.813 1018.5,573.5C 1017.17,573.5 1015.83,573.5 1014.5,573.5C 1014.82,570.428 1014.48,567.428 1013.5,564.5C 1012.91,564.709 1012.41,565.043 1012,565.5C 1011.5,568.146 1011.34,570.813 1011.5,573.5C 1010.5,573.5 1009.5,573.5 1008.5,573.5C 1008.5,569.833 1008.5,566.167 1008.5,562.5 Z"/></g>
<g><path style="opacity:1" fill="#e4eaea" d="M 899.5,562.5 C 902.119,562.232 904.619,562.565 907,563.5C 907.498,566.817 907.665,570.15 907.5,573.5C 904.552,573.777 901.719,573.444 899,572.5C 898.202,570.741 898.369,569.074 899.5,567.5C 901.225,566.985 902.892,566.318 904.5,565.5C 903.224,564.355 901.891,564.355 900.5,565.5C 899.614,564.675 899.281,563.675 899.5,562.5 Z"/></g>
<g><path style="opacity:1" fill="#120e27" d="M 844.5,564.5 C 849.255,566.116 849.589,568.449 845.5,571.5C 843.239,569.516 842.906,567.183 844.5,564.5 Z"/></g>
<g><path style="opacity:1" fill="#120e27" d="M 890.5,564.5 C 895.255,566.116 895.589,568.449 891.5,571.5C 889.239,569.516 888.906,567.183 890.5,564.5 Z"/></g>
<g><path style="opacity:1" fill="#e6ded3" d="M 916.5,557.5 C 917.833,557.5 919.167,557.5 920.5,557.5C 920.5,562.833 920.5,568.167 920.5,573.5C 912.023,575.844 908.523,572.844 910,564.5C 911.789,562.771 913.956,562.104 916.5,562.5C 916.5,560.833 916.5,559.167 916.5,557.5 Z"/></g>
<g><path style="opacity:1" fill="#ebeae8" d="M 977.5,562.5 C 982.836,561.185 985.503,563.185 985.5,568.5C 983.076,568.192 980.743,568.526 978.5,569.5C 979.966,571.657 981.8,571.99 984,570.5C 984.483,571.448 984.649,572.448 984.5,573.5C 975.445,574.139 973.111,570.472 977.5,562.5 Z"/></g>
<g><path style="opacity:1" fill="#0c0824" d="M 979.5,564.5 C 980.756,564.461 981.756,564.961 982.5,566C 981.167,566.667 979.833,566.667 978.5,566C 979.056,565.617 979.389,565.117 979.5,564.5 Z"/></g>
<g><path style="opacity:1" fill="#e4e7e9" d="M 1029.5,562.5 C 1034.34,561.677 1036.67,563.677 1036.5,568.5C 1034.08,568.192 1031.74,568.526 1029.5,569.5C 1031.1,571.729 1033.1,572.062 1035.5,570.5C 1036.71,571.274 1036.71,572.107 1035.5,573C 1028,574.833 1025.17,572 1027,564.5C 1027.99,563.934 1028.83,563.267 1029.5,562.5 Z"/></g>
<g><path style="opacity:1" fill="#1a1326" d="M 1030.5,564.5 C 1031.68,564.281 1032.68,564.614 1033.5,565.5C 1032.28,566.614 1030.94,566.781 1029.5,566C 1030.06,565.617 1030.39,565.117 1030.5,564.5 Z"/></g>
<g><path style="opacity:1" fill="#10061a" d="M 913.5,564.5 C 915.722,564.559 916.722,565.725 916.5,568C 915.167,572.667 913.833,572.667 912.5,568C 912.648,566.744 912.982,565.577 913.5,564.5 Z"/></g>
<g><path style="opacity:1" fill="#eae6e0" d="M 987.5,562.5 C 989.833,562.5 992.167,562.5 994.5,562.5C 994.719,563.675 994.386,564.675 993.5,565.5C 992.109,564.355 990.776,564.355 989.5,565.5C 990.914,566.624 992.414,567.624 994,568.5C 994.781,569.944 994.614,571.277 993.5,572.5C 991.253,573.374 988.92,573.708 986.5,573.5C 986.351,572.448 986.517,571.448 987,570.5C 988.494,571.747 989.994,571.747 991.5,570.5C 990.086,569.376 988.586,568.376 987,567.5C 986.36,565.735 986.527,564.068 987.5,562.5 Z"/></g>
<g><path style="opacity:1" fill="#251e28" d="M 901.5,568.5 C 902.5,568.5 903.5,568.5 904.5,568.5C 904.5,569.5 904.5,570.5 904.5,571.5C 903.5,571.5 902.5,571.5 901.5,571.5C 901.5,570.5 901.5,569.5 901.5,568.5 Z"/></g>
<g><path style="opacity:1" fill="#d7dad8" d="M 995.5,562.5 C 996.833,562.5 998.167,562.5 999.5,562.5C 999.183,565.572 999.516,568.572 1000.5,571.5C 1001.09,571.291 1001.59,570.957 1002,570.5C 1002.5,567.854 1002.66,565.187 1002.5,562.5C 1003.5,562.5 1004.5,562.5 1005.5,562.5C 1005.5,566.167 1005.5,569.833 1005.5,573.5C 996.973,574.845 993.64,571.178 995.5,562.5 Z"/></g>
<g><path style="opacity:1" fill="#e1e0dd" d="M 854.5,562.5 C 854.523,564.927 855.023,567.26 856,569.5C 856.483,568.552 856.649,567.552 856.5,566.5C 859.493,560.995 861.659,561.328 863,567.5C 864.269,566.095 864.769,564.429 864.5,562.5C 865.5,562.5 866.5,562.5 867.5,562.5C 866.833,566.167 866.167,569.833 865.5,573.5C 861.648,573.511 859.815,571.511 860,567.5C 858.872,569.345 858.372,571.345 858.5,573.5C 857.167,573.5 855.833,573.5 854.5,573.5C 853.942,570.656 853.275,567.822 852.5,565C 852.684,563.624 853.351,562.791 854.5,562.5 Z"/></g>
<g><path style="opacity:1" fill="#dda060" d="M 854.5,562.5 C 855.345,563.671 856.011,565.005 856.5,566.5C 856.649,567.552 856.483,568.552 856,569.5C 855.023,567.26 854.523,564.927 854.5,562.5 Z"/></g>
<g><path style="opacity:1" fill="#e7dcd0" d="M 945.5,563.5 C 946.708,562.218 948.042,562.218 949.5,563.5C 951.309,569.903 952.642,569.57 953.5,562.5C 954.5,562.5 955.5,562.5 956.5,562.5C 955.825,566.357 954.658,570.023 953,573.5C 952.394,576.093 950.894,577.76 948.5,578.5C 947.833,578.167 947.167,577.833 946.5,577.5C 948.272,576.73 949.272,575.397 949.5,573.5C 948.669,569.857 947.336,566.524 945.5,563.5 Z"/></g>
<g><path style="opacity:1" fill="#5e59c0" d="M 894.5,528.5 C 896.167,528.5 897.833,528.5 899.5,528.5C 908.833,528.5 918.167,528.5 927.5,528.5C 927.5,528.833 927.5,529.167 927.5,529.5C 876.441,529.014 825.441,529.514 774.5,531C 771.865,532.961 770.031,535.461 769,538.5C 768.333,555.167 768.333,571.833 769,588.5C 769.971,592.812 772.471,595.978 776.5,598C 830.832,598.5 885.166,598.667 939.5,598.5C 939.5,599.167 939.5,599.833 939.5,600.5C 924.5,600.5 909.5,600.5 894.5,600.5C 854.832,600.667 815.165,600.5 775.5,600C 771.763,598.719 769.263,596.219 768,592.5C 767.333,573.833 767.333,555.167 768,536.5C 769.263,532.781 771.763,530.281 775.5,529C 815.165,528.5 854.832,528.333 894.5,528.5 Z"/></g>
<g><path style="opacity:1" fill="#d2bdf6" d="M 1125.5,541.5 C 1126.17,541.833 1126.83,542.167 1127.5,542.5C 1127.67,558.837 1127.5,575.17 1127,591.5C 1126.02,594.625 1124.19,597.125 1121.5,599C 1097.57,600.47 1073.57,600.97 1049.5,600.5C 1012.83,600.5 976.167,600.5 939.5,600.5C 939.5,599.833 939.5,599.167 939.5,598.5C 998.834,598.667 1058.17,598.5 1117.5,598C 1120.67,596.167 1123.17,593.667 1125,590.5C 1125.5,574.17 1125.67,557.837 1125.5,541.5 Z"/></g>
<g><path style="opacity:1" fill="#333336" d="M 40.5,837.5 C 54.2185,835.937 63.3852,841.604 68,854.5C 69.5428,871.122 62.0428,880.455 45.5,882.5C 27.6707,879.495 20.8374,869.162 25,851.5C 28.4922,844.834 33.6589,840.168 40.5,837.5 Z"/></g>
<g><path style="opacity:1" fill="#1c1c1e" d="M 40.5,839.5 C 58.9802,838.48 67.4802,847.146 66,865.5C 60.4631,879.015 50.6298,883.515 36.5,879C 24.9227,870.753 22.4227,860.253 29,847.5C 32.1496,843.689 35.983,841.023 40.5,839.5 Z"/></g>
<g><path style="opacity:1" fill="#e4e4e4" d="M 44.5,848.5 C 45.5,848.5 46.5,848.5 47.5,848.5C 47.5,851.167 47.5,853.833 47.5,856.5C 50.2469,856.187 52.9135,856.52 55.5,857.5C 53.1667,862.167 50.8333,866.833 48.5,871.5C 47.675,872.386 46.675,872.719 45.5,872.5C 45.5,869.833 45.5,867.167 45.5,864.5C 42.7531,864.813 40.0865,864.48 37.5,863.5C 40.1183,858.599 42.4516,853.599 44.5,848.5 Z"/></g>
<g><path style="opacity:1" fill="#2c2c2e" d="M 44.5,853.5 C 45.0809,857.415 47.4142,859.748 51.5,860.5C 50.3333,862.833 49.1667,865.167 48,867.5C 47.6667,865.833 47.3333,864.167 47,862.5C 45.1746,861.897 43.3413,861.23 41.5,860.5C 42.7878,858.261 43.7878,855.928 44.5,853.5 Z"/></g>
</svg>
